<?xml version="1.0" standalone="no"?><!DOCTYPE svg PUBLIC "-//W3C//DTD SVG 1.1//EN" "http://www.w3.org/Graphics/SVG/1.1/DTD/svg11.dtd"><svg t="1614221006587" class="icon" viewBox="0 0 1024 1024" version="1.1" xmlns="http://www.w3.org/2000/svg" p-id="15489" xmlns:xlink="http://www.w3.org/1999/xlink" width="200" height="200"><defs><style type="text/css"></style></defs><path d="M529.820877 153.863297c0-10.090822-8.181333-18.273179-18.275225-18.273179-10.092869 0-18.275225 8.181333-18.275225 18.273179l0 36.550451L529.820877 190.413747 529.820877 153.863297zM676.020634 153.863297c0-10.090822-8.181333-18.273179-18.275225-18.273179s-18.275225 8.181333-18.275225 18.273179l0 36.550451 36.550451 0L676.020634 153.863297zM383.621121 153.863297c0-10.090822-8.181333-18.273179-18.275225-18.273179-10.092869 0-18.273179 8.181333-18.273179 18.273179l0 36.550451 36.547381 0L383.620098 153.863297zM895.322315 364.027877c0-25.231661-20.456914-45.687552-45.689598-45.687552L676.020634 318.340325l0-91.37715-36.550451 0 0 91.37715L529.820877 318.340325l0-91.37715-36.549427 0 0 91.37715L383.621121 318.340325l0-91.37715-36.547381 0 0 91.37715-173.61413 0c-25.233708 0-45.687552 20.455891-45.687552 45.687552 0 0.278339 0.076748 0.535189 0.081864 0.813528-0.00307 0.109494-0.081864 0.199545-0.081864 0.309038l0 41.766242c0 0.273223 0.184195 0.502443 0.203638 0.771573-0.01535 0.691755-0.203638 1.334391-0.203638 2.029216 0 37.446867 22.581298 69.544913 54.824653 83.656305l0 318.388421-27.412326 0c-15.140839 0-27.412326 12.271488-27.412326 27.412326 0 15.141862 12.271488 27.411303 27.412326 27.411303l712.724581 0c15.139815 0 27.414373-12.269441 27.414373-27.411303 0-15.140839-12.275581-27.412326-27.414373-27.412326l-27.412326 0 0-318.387397c32.245402-14.111392 54.826699-46.209438 54.826699-83.657328l0-36.550451c0-1.079588-0.434905-2.01489-0.615007-3.043313C894.979508 368.109846 895.322315 366.115422 895.322315 364.027877zM803.945165 811.762201l-584.799026 0 0-91.375104 584.799026 0L803.945165 811.762201zM803.945165 702.114942l-584.799026 0 0-109.653399 584.799026 0L803.945165 702.114942zM803.945165 574.187341l-584.799026 0 0-73.099878c30.033014 0 56.444547-14.683421 73.100902-37.048801 16.655332 22.36538 43.068911 37.048801 73.098855 37.048801 30.033014 0 56.444547-14.683421 73.100902-37.048801 16.655332 22.36538 43.068911 37.048801 73.098855 37.048801 30.03199 0 56.443523-14.683421 73.099878-37.049824 3.749394 5.03262 8.003278 9.592472 12.688997 13.753235 1.529843 1.37123 3.128247 2.651386 4.748141 3.918239 2.714831 2.101871 5.480828 4.074805 8.426927 5.864568 2.840698 1.749854 5.771447 3.344165 8.80555 4.77884 1.609661 0.751107 3.187599 1.512447 4.845355 2.169409 4.439102 1.786693 9.045003 3.215228 13.802354 4.284583 1.131777 0.25071 2.278903 0.423649 3.427052 0.632403 5.318122 0.979304 10.745738 1.648546 16.356526 1.648546 30.03199 0 56.444547-14.683421 73.099878-37.049824 16.656355 22.366404 43.069935 37.049824 73.099878 37.049824L803.946188 574.187341zM858.770841 409.717476c0 30.275537-24.545022 54.82056-54.824653 54.82056-30.278607 0-54.825676-24.545022-54.825676-54.82056l-36.548404 0c0 30.275537-24.545022 54.82056-54.824653 54.82056-30.278607 0-54.824653-24.545022-54.824653-54.82056l-36.550451 0c0 30.275537-24.545022 54.82056-54.824653 54.82056-30.277584 0-54.824653-24.545022-54.824653-54.82056l-36.550451 0c0 0.00307 0.001023 0.008186 0.001023 0.011256-0.007163 30.272467-24.549116 54.809303-54.825676 54.809303-30.277584 0-54.822606-24.545022-54.822606-54.82056l-36.552497 0c0 30.275537-24.545022 54.82056-54.824653 54.82056-30.277584 0-54.822606-24.545022-54.822606-54.82056l-0.002047 0 0-54.826699 694.449355 0L858.772888 409.717476z" p-id="15490"></path></svg>