<?xml version="1.0" encoding="UTF-8"?>
<svg width="60px" height="60px" viewBox="0 0 60 60" version="1.1" xmlns="http://www.w3.org/2000/svg" xmlns:xlink="http://www.w3.org/1999/xlink">
    <title>画板4</title>
    <g id="画板4" stroke="none" stroke-width="1" fill="none" fill-rule="evenodd">
        <g id="积分" transform="translate(3.000000, 1.000000)" fill="#666666" fill-rule="nonzero">
            <path d="M27.4999209,27.4899285 C11.8233193,27.4899285 0,21.5806495 0,13.7448029 C0,5.90896922 11.8233193,0 27.4999209,0 C43.1765225,0 54.9998418,5.90862069 54.9998418,13.7448029 C54.9998418,21.5810238 43.1765225,27.4899285 27.4999209,27.4899285 Z M27.4999209,4.45159 C13.9024733,4.45159 4.42666906,9.34933296 4.42666906,13.7448029 C4.42666906,18.140247 13.9024733,23.0383385 27.4999209,23.0383385 C41.0973684,23.0383385 50.5731727,18.1402664 50.5731727,13.7448029 C50.5731727,9.34935878 41.0973684,4.45159 27.4999209,4.45159 Z M27.4999209,42.2119113 C11.8233193,42.2119113 0,36.3026322 0,28.4667857 L0,28.466786 C0,27.2402445 0.990941433,26.2459285 2.21333453,26.2459285 C3.43572119,26.2459283 4.42666906,27.2402381 4.42666906,28.466786 C4.42666906,28.466786 4.42666906,28.466786 4.42666906,28.466786 C4.42666906,32.8619009 13.9024733,37.7603216 27.4999209,37.7603216 C41.0973684,37.7603216 50.5731727,32.8622495 50.5731727,28.466786 L50.5731727,28.4667848 C50.558262,27.2402434 51.5371172,26.2337998 52.7595039,26.2188387 C53.9818906,26.2038773 54.984925,27.1860596 55,28.4126011 C55,28.4306611 55,28.4487233 55,28.4667834 C55,36.302617 43.176516,42.2119113 27.4999144,42.2119113 L27.4999209,42.2119113 Z M27.4999209,57.5 C11.8233193,57.5 0,51.590721 0,43.7548744 L0,43.7548747 C0,42.5283333 0.990941433,41.5340173 2.21333453,41.5340173 C3.43572119,41.5340171 4.42666906,42.5283268 4.42666906,43.7548747 C4.42666906,43.7548747 4.42666906,43.7548747 4.42666906,43.7548747 C4.42666906,48.1499897 13.9024733,53.0484103 27.4999209,53.0484103 C41.0973684,53.0484103 50.5731727,48.1503382 50.5731727,43.7548747 L50.5731727,43.7548736 C50.558262,42.5283321 51.5371172,41.5218885 52.7595039,41.5069275 C53.9818906,41.4919661 54.984925,42.4741484 55,43.7006898 C55,43.7187499 55,43.736812 55,43.7548721 C55,51.5907058 43.176516,57.5 27.4999144,57.5 L27.4999209,57.5 Z" id="形状"></path>
        </g>
    </g>
</svg>