<?xml version="1.0" standalone="no"?><!DOCTYPE svg PUBLIC "-//W3C//DTD SVG 1.1//EN" "http://www.w3.org/Graphics/SVG/1.1/DTD/svg11.dtd"><svg t="1614221137383" class="icon" viewBox="0 0 1024 1024" version="1.1" xmlns="http://www.w3.org/2000/svg" p-id="16244" xmlns:xlink="http://www.w3.org/1999/xlink" width="200" height="200"><defs><style type="text/css"></style></defs><path d="M959 316.5c0-0.8 0.1-1.6 0.1-2.4h-0.9l-71.9-209.5C883.1 81.7 862.6 64 837.9 64H186.1c-24.7 0-45.2 17.7-48.4 40.6L65.8 314.1h-0.9c0 0.8 0.1 1.6 0.1 2.4l-1 2.9 1.2 0.4c3 90.7 77.4 163.6 168.7 163.6 57.6 0 108.5-29 139.1-73.2 30.5 44.2 81.4 73.2 139 73.2s108.5-29 139.1-73.2c30.5 44.2 81.4 73.2 139 73.2 91.3 0 165.7-72.9 168.7-163.6l1.2-0.4-1-2.9z m-168.9 107C730 423.5 681 374.4 681 314.1c0-16.5-13.4-29.9-30-29.9s-30 13.4-30 29.9c0 60.3-48.9 109.4-109.1 109.4-60.1 0-109.1-49.1-109.1-109.4 0-16.5-13.4-29.9-30-29.9s-30 13.4-30 29.9c0 60.3-48.9 109.4-109.1 109.4-56.4 0-103-43.2-108.5-98.4l69.1-201.4h635l69.1 201.4c-5.3 55.2-51.9 98.4-108.3 98.4z m81.6 117.6c-16.6 0-30 13.4-30 29.9v309c0 11.2-9.1 20.2-20.3 20.2H655.8V719c0-33.7-19.7-59.1-45.9-59.1H414.1c-26.2 0-45.9 25.4-45.9 59.1v181.2H202.6c-11.2 0-20.3-9.1-20.3-20.2V571c0-16.5-13.4-29.9-30-29.9s-30 13.4-30 29.9v309c0 44.1 36 80 80.2 80h618.9c44.2 0 80.2-35.9 80.2-80V571c0.1-16.5-13.4-29.9-29.9-29.9zM595.8 900.2H428.2V719.7h167.7v180.5z" fill="#595959" p-id="16245"></path></svg>