<?xml version="1.0" encoding="UTF-8"?>
<svg width="137px" height="16px" viewBox="0 0 137 16" version="1.1" xmlns="http://www.w3.org/2000/svg" xmlns:xlink="http://www.w3.org/1999/xlink">
    <title>编组</title>
    <defs>
        <filter id="filter-1">
            <feColorMatrix in="SourceGraphic" type="matrix" values="0 0 0 0 0.176471 0 0 0 0 0.184314 0 0 0 0 0.200000 0 0 0 1.000000 0"></feColorMatrix>
        </filter>
        <polygon id="path-2" points="0.199454536 0.0938867925 1.56247639 0.0938867925 1.56247639 12.2631849 0.199454536 12.2631849"></polygon>
        <polygon id="path-4" points="0 0.216422642 8.17282676 0.216422642 8.17282676 12.3670642 0 12.3670642"></polygon>
    </defs>
    <g id="Page-1" stroke="none" stroke-width="1" fill="none" fill-rule="evenodd">
        <g id="编组" transform="translate(-1764.000000, -31.000000)" filter="url(#filter-1)">
            <g transform="translate(1764.000000, 31.000000)">
                <path d="M68.4482415,10.9212075 L68.4464302,10.9212075 L64.2502038,10.9323774 C63.1987321,10.936 62.8569962,10.8022642 62.390883,10.2123774 L58.5798642,5.53101887 C58.5708075,5.52045283 58.5620528,5.51018868 58.5529962,5.50022642 C57.8631849,4.75154717 56.7187321,3.86007547 55.1791094,3.86037728 L55.1682415,3.86037728 C53.988166,3.864 52.8488453,4.36060377 52.0428075,5.22309434 C51.2256,6.09766038 50.8186566,7.24 50.8962415,8.43879245 C51.0372226,10.6069434 52.8500528,12.3663396 55.0227321,12.4439245 C55.0764679,12.4460377 55.1299019,12.4469434 55.183034,12.4469434 C56.310883,12.4469434 57.3705057,12.0161509 58.1819774,11.2233962 C58.191034,11.2146415 58.4114113,10.9966792 58.6348075,10.7123019 C58.8618264,10.4230943 58.8114113,10.0043774 58.5222038,9.77766038 C58.2336,9.5509434 57.814883,9.6010566 57.5878642,9.89026415 C57.4200151,10.1049057 57.2500528,10.2733585 57.2500528,10.2733585 C56.6652981,10.8448302 55.8927698,11.1436981 55.0707321,11.1144151 C53.572166,11.0603774 52.3214491,9.84739623 52.2245434,8.35275472 C52.1705057,7.52407547 52.4515623,6.73524528 53.0151849,6.13177358 C53.5797132,5.52769811 54.3452981,5.19350943 55.1715623,5.19139623 L55.1788075,5.19139623 C56.2275623,5.19109434 57.0502038,5.83773585 57.5609962,6.3874717 L61.3526943,11.0455849 C62.1593358,12.0647547 62.9849962,12.2633962 64.2200151,12.2630943 L64.2535245,12.2630943 L68.4500528,12.2522264 C68.8180528,12.2510189 69.1148075,11.9524528 69.1136037,11.5847547 C69.1126943,11.2179623 68.815034,10.9212075 68.4482415,10.9212075" id="Fill-1" fill="#2D2F33"></path>
                <path d="M77.2707623,5.47532075 C77.263517,5.46596226 77.2550642,5.45660377 77.2469132,5.44784906 C76.2799698,4.38490566 75.0757434,3.80166038 73.8591396,3.80496703 C72.679366,3.80830189 71.5406491,4.30490566 70.7349132,5.16739623 C69.9174038,6.04226415 69.5101585,7.18430189 69.5883472,8.38339623 C69.7293283,10.5515472 71.5412528,12.3109434 73.7148377,12.3885283 C73.7679698,12.3909434 73.8211019,12.3918491 73.874234,12.3918491 C75.0023849,12.3918491 76.0617057,11.9607547 76.8737811,11.168 C76.8828377,11.1592453 77.1029132,10.941283 77.3269132,10.6566038 C77.5539321,10.3673962 77.5032151,9.94867925 77.2140075,9.72196226 C76.9248,9.49524528 76.5066868,9.54566038 76.2799698,9.83486792 C76.1112151,10.0495094 75.9418566,10.2173585 75.9421585,10.2173585 C75.3564981,10.789434 74.5839698,11.0883019 73.762234,11.0590189 C72.263366,11.0049811 71.0129509,9.79169811 70.9157434,8.2970566 C70.8620075,7.46837736 71.1430642,6.67954717 71.7066868,6.07607547 C72.2709132,5.472 73.0374038,5.13811321 73.863366,5.13569811 L73.8706113,5.13569811 C74.930234,5.13569811 75.7477434,5.78173585 76.2506868,6.33056604 L80.866234,11.9975849 C81.0986868,12.282566 81.5171019,12.325434 81.8026868,12.093283 C82.087366,11.8611321 82.1308377,11.4421132 81.898083,11.1571321 L77.2707623,5.47532075 Z" id="Fill-3" fill="#2D2F33"></path>
                <g transform="translate(47.698113, 0.208000)">
                    <mask id="mask-3" fill="white">
                        <use xlink:href="#path-2"></use>
                    </mask>
                    <g id="Clip-6"></g>
                    <path d="M0.864815094,0.0938264151 L0.863003774,0.0938264151 C0.49530566,0.0950339623 0.198550943,0.3936 0.199454536,0.761298113 L0.23085283,11.5993358 C0.232060377,11.9661283 0.530324528,12.2631849 0.896513208,12.2631849 L0.898324528,12.2631849 C1.26572075,12.2619774 1.56307925,11.9628075 1.56247639,11.5957132 L1.53017358,0.757373585 C1.52926792,0.390581132 1.23190943,0.0938264151 0.864815094,0.0938264151" id="Fill-5" fill="#2D2F33" mask="url(#mask-3)"></path>
                </g>
                <path d="M63.9686038,9.6629434 C64.0911698,9.7610566 64.2384906,9.80815094 64.3836981,9.80815094 C64.578717,9.80815094 64.7722264,9.72271698 64.9041509,9.55818868 L67.7763019,5.9645283 C67.7811321,5.95849057 67.7862642,5.95245283 67.7901887,5.94641509 C68.093283,5.53977358 68.1397736,5.00573585 67.9121509,4.55260377 C67.6845283,4.10067925 67.2289811,3.82022642 66.7248302,3.82022642 L66.7209057,3.82022642 L62.021434,3.82173585 C61.6540377,3.82173585 61.3566792,4.11969811 61.3566792,4.48679245 C61.3566792,4.85479245 61.6543396,5.15275472 62.0220377,5.15245283 L66.7224151,5.15124528 L63.8641509,8.72739623 C63.6350189,9.01479245 63.6815094,9.43320755 63.9686038,9.6629434" id="Fill-7" fill="#2D2F33"></path>
                <path d="M41.9821585,3.89246792 L41.9697811,3.89246792 C40.8211019,3.89578868 39.7427623,4.34620377 38.9331019,5.16069434 C38.1237434,5.97518491 37.679366,7.05624151 37.6829667,8.20461887 L37.7032151,15.2428075 C37.7041208,15.6096 38.0017811,15.9060528 38.3685736,15.9060528 L38.3703849,15.9060528 C38.7383849,15.9051472 39.0348377,15.6062792 39.0339321,15.238883 L39.0134038,8.20069434 C39.0109887,7.40793962 39.3180075,6.66137358 39.8768,6.09895849 C40.4358943,5.5365434 41.1809509,5.2256 41.9740075,5.22348679 L41.9821585,5.22348679 C42.7718943,5.22318491 43.5151396,5.5296 44.0757434,6.08688302 C44.6330264,6.64084528 44.9439698,7.37775094 44.9509132,8.16295849 C44.9509132,8.16990189 44.9506113,8.17684528 44.9506113,8.18378868 C44.9557434,9.82061887 43.6274415,11.156166 41.9909132,11.1612981 C41.7388377,11.1625057 41.4885736,11.1308075 41.2467623,11.0692226 C40.8908377,10.9786566 40.5291774,11.1942038 40.4383094,11.5501283 C40.3474415,11.9060528 40.5629887,12.2689208 40.9192151,12.3591849 C41.2648755,12.447034 41.6229132,12.4917132 41.9821585,12.4917132 L41.9948377,12.4917132 C44.3571019,12.4847698 46.2755925,10.5638642 46.2813283,8.20431698 C46.2816302,8.19616604 46.2819321,8.18801509 46.2819321,8.17956226 C46.2783094,7.03118491 45.8281962,5.9525434 45.0137057,5.14318491 C44.202234,4.33624151 43.1260075,3.89246792 41.9821585,3.89246792" id="Fill-9" fill="#2D2F33"></path>
                <path d="M35.5570415,0.341766038 C35.1896453,0.342671698 34.8928906,0.641841509 34.8940981,1.00893585 L34.9146264,8.21618113 C34.9170415,9.00923774 34.6103245,9.75550189 34.051834,10.317917 C33.4921358,10.880634 32.7473811,11.1912755 31.9546264,11.1936906 L31.9458717,11.1936906 C31.1567396,11.1936906 30.4134943,10.8872755 29.8525887,10.3299925 C29.2956075,9.7757283 28.9846642,9.03912453 28.977117,8.25361509 C28.9774189,8.24697358 28.9774189,8.24003019 28.9774189,8.23308679 C28.9725887,6.5962566 30.3008906,5.26070943 31.9377208,5.25587925 C32.1952302,5.2546717 32.4397585,5.28606792 32.6812679,5.34765283 C33.0362868,5.43791698 33.3997585,5.22297358 33.4900226,4.86674717 C33.5805887,4.51082264 33.3653434,4.14855849 33.0097208,4.05799245 C32.6592302,3.96863396 32.2945509,3.9266717 31.9331925,3.92516226 C29.5709283,3.93210566 27.6527396,5.85301132 27.6470038,8.21255849 C27.6464,8.22070943 27.6464,8.22886038 27.6464,8.23731321 C27.6500226,9.38569057 28.1004377,10.4643321 28.9143245,11.2739925 C29.7264,12.080634 30.8020226,12.5244075 31.9461736,12.5244075 L31.9585509,12.5244075 C33.1072302,12.5210868 34.1852679,12.0709736 34.9955321,11.2561811 C35.8045887,10.4422943 36.248966,9.36063396 36.2456638,8.2122566 L36.2248151,1.00531321 C36.2233057,0.637615094 35.9271547,0.343577358 35.5570415,0.341766038" id="Fill-11" fill="#2D2F33"></path>
                <g transform="translate(0.000000, 0.208000)">
                    <mask id="mask-5" fill="white">
                        <use xlink:href="#path-4"></use>
                    </mask>
                    <g id="Clip-14"></g>
                    <path d="M5.54584151,5.14895094 C5.53859623,5.14623396 5.53074717,5.14381887 5.5232,5.14170566 L4.47897358,4.82291321 C4.25799245,4.75619623 4.04908679,4.69340377 3.88093585,4.60706415 L3.84440755,4.58804528 C3.30644528,4.27378113 2.98523774,3.74940377 2.9837283,3.18306415 C2.98191698,2.74261132 3.17331321,2.3248 3.52108679,2.00600755 C3.88576604,1.67212075 4.3757283,1.48736604 4.90010566,1.4858566 L4.90704906,1.4858566 C5.63187925,1.4858566 6.28787925,1.8402717 6.61935094,2.41113962 C6.79535094,2.71453585 7.18297358,2.81778113 7.48697358,2.64178113 C7.79036981,2.46608302 7.89301132,2.07755472 7.71701132,1.77446038 C7.16003019,0.812649057 6.0832,0.216422642 4.90644528,0.216422642 C4.90312453,0.216422642 4.89950189,0.216422642 4.89678491,0.216724528 C4.05542642,0.218837736 3.26297358,0.521932075 2.66403019,1.06955472 C2.04878491,1.63257358 1.71157736,2.3842717 1.71429434,3.18668679 C1.71670943,4.21521509 2.28153962,5.15287547 3.22312453,5.69506415 C3.23127547,5.69989434 3.23942642,5.70442264 3.24848302,5.70895094 L3.30070943,5.73612075 C3.57270943,5.87529057 3.84712453,5.95830943 4.11218113,6.03830943 L5.14010566,6.35196981 C6.20576604,6.72570566 6.86327547,7.53113962 6.90161509,8.50895094 C6.92546415,9.12057358 6.69693585,9.71710189 6.25738868,10.1892528 C5.74569057,10.7395925 4.99338868,11.0695547 4.19369057,11.0961208 C2.81165283,11.1414038 1.60984151,10.3000453 1.33723774,9.09551698 C1.33240755,9.0768 1.32576604,9.05295094 1.31942642,9.03423396 C1.31912453,9.0333283 1.28621887,8.93008302 1.26387925,8.76646038 C1.21708679,8.41898868 0.8992,8.17476226 0.550218868,8.22215849 C0.203049057,8.26834717 -0.0408754717,8.58834717 0.00561509434,8.93521509 C0.0364075472,9.16404528 0.0819924528,9.33008302 0.105539623,9.40464906 C0.513690566,11.1423094 2.17044528,12.367366 4.0877283,12.3670642 C4.13663396,12.3670642 4.18584151,12.3664604 4.23535094,12.3646491 C5.37074717,12.327517 6.44636981,11.8496302 7.1872,11.0544604 C7.85799245,10.3326491 8.20727547,9.41129057 8.1701434,8.45944151 C8.11157736,6.95906415 7.10599245,5.69053585 5.54584151,5.14895094" id="Fill-13" fill="#2D2F33" mask="url(#mask-5)"></path>
                </g>
                <path d="M17.1212981,9.54620377 C16.8052226,9.35843019 16.3973736,9.46288302 16.2092981,9.77895849 C15.6206189,10.7700528 14.5000151,11.3354868 13.3537509,11.2177509 C12.564317,11.1374491 11.8542792,10.7540528 11.3537509,10.1394113 C10.852317,9.52446792 10.6213736,8.75163774 10.7013736,7.96250566 C10.7819774,7.17367547 11.1653736,6.46333585 11.7800151,5.96250566 C12.3949585,5.46167547 13.1671849,5.2301283 13.9569208,5.31073208 C14.5151094,5.36778868 15.0355623,5.57699623 15.4687698,5.91269434 L13.2323925,7.74997736 C12.9489208,7.98333585 12.9075623,8.4026566 13.1406189,8.68673208 C13.3739774,8.97050566 13.7936,9.01156226 14.0773736,8.77850566 L16.8858264,6.47118491 C17.1692981,6.2381283 17.2103547,5.81880755 16.9769962,5.53473208 C16.252166,4.65261887 15.2278642,4.10288302 14.092166,3.9866566 C12.9480151,3.87043019 11.8298264,4.20552453 10.9389585,4.9306566 C10.0486943,5.65609057 9.4941283,6.68461887 9.37790189,7.82726038 C9.26076981,8.96990189 9.59586415,10.0896 10.3219019,10.9798642 C11.0467321,11.8704302 12.0755623,12.4249962 13.2179019,12.5415245 C13.3637132,12.556317 13.5077132,12.5638642 13.652317,12.5638642 C15.1557132,12.5635623 16.5757887,11.7677887 17.3540528,10.4582038 C17.5418264,10.1424302 17.4376755,9.73397736 17.1212981,9.54620377" id="Fill-15" fill="#2D2F33"></path>
                <path d="M26.2716679,9.51966792 C25.9555925,9.33189434 25.5477434,9.43604528 25.3596679,9.75212075 C24.7709887,10.743517 23.6494792,11.3080453 22.5041208,11.1912151 C20.8751396,11.0242717 19.6860075,9.56434717 19.8517434,7.93596981 C19.9323472,7.14713962 20.3157434,6.43710189 20.9306868,5.93596981 C21.5450264,5.43544151 22.3178566,5.20359245 23.1072906,5.28419623 C23.6657811,5.34125283 24.1856302,5.55046038 24.6191396,5.88615849 L22.3827623,7.72344151 C22.0992906,7.9568 22.0579321,8.37581887 22.2909887,8.65989434 C22.5243472,8.94366792 22.9436679,8.98502642 23.2277434,8.75196981 L26.0361962,6.44434717 C26.3196679,6.21159245 26.3607245,5.7922717 26.127366,5.50789434 C25.4028377,4.62608302 24.3785358,4.07634717 23.242234,3.95981887 C22.0992906,3.84389434 20.9801962,4.17898868 20.0893283,4.90381887 C19.1990642,5.62955472 18.6444981,6.65808302 18.5282717,7.80102642 C18.287366,10.1590642 20.010234,12.274083 22.3682717,12.5149887 C22.5137811,12.530083 22.658083,12.5373283 22.802083,12.5373283 C24.306083,12.5370264 25.7261585,11.7409509 26.5044226,10.4316679 C26.6921962,10.1155925 26.5877434,9.70744151 26.2716679,9.51966792" id="Fill-17" fill="#2D2F33"></path>
                <path d="M122.309102,3.29621132 L120.04646,3.29621132 C119.973404,3.29621132 119.911517,3.23432453 119.911517,3.16096604 L119.911215,2.61183396 C119.911215,2.33621132 119.687215,2.11281509 119.411592,2.11281509 C119.13597,2.11281509 118.912875,2.33621132 118.912875,2.61183396 L118.912875,3.16126792 C118.912875,3.78617358 119.421857,4.29455094 120.04646,4.29455094 L122.309102,4.29424906 C122.584725,4.29424906 122.808121,4.07085283 122.808121,3.79523019 C122.807819,3.51960755 122.584725,3.29621132 122.309102,3.29621132" id="Fill-19" fill="#2D2F33"></path>
                <path d="M117.96477,3.29651321 L116.321298,3.29651321 C115.669826,3.29681509 115.151487,3.78073962 114.99994,4.52911698 C114.993298,4.55960755 114.989977,4.59070189 114.989977,4.62149434 L114.943185,7.91689057 C114.940166,8.06481509 114.917525,8.21153208 114.877072,8.3458717 L113.785751,11.7846642 C113.70243,12.0473057 113.84794,12.3280604 114.110581,12.4110792 C114.160694,12.4273811 114.211713,12.4349283 114.261525,12.4349283 C114.473751,12.4349283 114.669675,12.2990792 114.7376,12.0865509 L115.831336,8.64021132 C115.899562,8.41138113 115.936694,8.17470189 115.941223,7.93319245 L115.986808,4.6864 C116.021525,4.54270189 116.112091,4.29485283 116.321298,4.29485283 L117.96477,4.29455094 C118.240392,4.29455094 118.463789,4.07115472 118.463789,3.79553208 C118.463789,3.51990943 118.240392,3.29651321 117.96477,3.29651321" id="Fill-21" fill="#2D2F33"></path>
                <path d="M128.220075,7.13289057 C128.051321,6.9149283 127.737962,6.87507925 127.520302,7.04353208 L127.133283,7.3424 L127.132981,5.55855094 L127.836075,5.55824906 C128.111698,5.55824906 128.334792,5.33485283 128.334792,5.05923019 C128.334792,4.78360755 128.111698,4.56021132 127.836075,4.56021132 L127.132981,4.56051321 L127.132981,3.5573434 C127.132679,3.28172075 126.909283,3.05832453 126.63366,3.05832453 C126.358038,3.05832453 126.135245,3.28172075 126.135245,3.5573434 L126.135245,4.56051321 L125.432755,4.56051321 C125.157132,4.56051321 124.933434,4.78390943 124.933434,5.05953208 C124.933434,5.33515472 125.157132,5.55855094 125.433057,5.55855094 L126.135245,5.55855094 L126.135547,8.11432453 L125.127547,8.89379623 C124.909283,9.06285283 124.869434,9.37621132 125.038189,9.5938717 C125.136302,9.72096604 125.283925,9.78768302 125.43366,9.78768302 C125.539925,9.78768302 125.647698,9.7538717 125.737962,9.68323019 L128.130415,7.83296604 C128.348679,7.66451321 128.389132,7.35115472 128.220075,7.13289057" id="Fill-23" fill="#2D2F33"></path>
                <path d="M130.872181,7.10635472 C130.698294,6.89261887 130.38403,6.86031698 130.169992,7.03420377 L127.895879,8.88476981 C127.682143,9.05835472 127.649238,9.37261887 127.823125,9.5866566 C127.922445,9.70771321 128.065842,9.77080755 128.211351,9.77080755 C128.32154,9.77080755 128.432936,9.73397736 128.525917,9.65880755 L130.800332,7.8085434 C131.014068,7.6346566 131.046068,7.32009057 130.872181,7.10635472" id="Fill-25" fill="#2D2F33"></path>
                <path d="M130.457992,9.58629434 C130.556709,9.70735094 130.700709,9.77044528 130.845313,9.77044528 C130.956106,9.77044528 131.068106,9.73361509 131.160181,9.65844528 L133.434596,7.80818113 C133.648332,7.63429434 133.680634,7.32003019 133.507049,7.10599245 C133.33286,6.8922566 133.018294,6.85995472 132.804558,7.03384151 L130.530143,8.88410566 C130.316408,9.05799245 130.284408,9.37255849 130.457992,9.58629434" id="Fill-27" fill="#2D2F33"></path>
                <path d="M130.151094,3.6765283 L132.900679,3.6765283 L132.335547,4.14807547 C132.123925,4.32467925 132.095547,4.63924528 132.271849,4.85116981 C132.37117,4.96950943 132.512453,5.03049057 132.655547,5.03049057 C132.768151,5.03049057 132.88166,4.99245283 132.974943,4.91486792 L133.623698,4.37358491 C133.953057,4.12181132 134.088,3.69584906 133.960604,3.3085283 C133.834415,2.92573585 133.489358,2.67818868 133.079698,2.67818868 L130.151094,2.67849057 C129.875472,2.67849057 129.652377,2.90188679 129.652377,3.17750943 C129.652377,3.45313208 129.875472,3.6765283 130.151094,3.6765283" id="Fill-29" fill="#2D2F33"></path>
                <path d="M132.341223,5.34351698 L129.80326,5.34170566 L129.802657,5.34170566 C129.527336,5.34170566 129.303638,5.5648 129.303336,5.84042264 C129.303336,6.11604528 129.526732,6.33944151 129.802053,6.3397434 L132.340921,6.34155472 C133.746506,6.34155472 134.890355,7.48510189 134.890355,8.89068679 C134.890657,10.2962717 133.747109,11.4401208 132.341525,11.4401208 C131.479638,11.4401208 130.682958,11.0096302 130.209298,10.2884226 C130.058053,10.058083 129.747713,9.99408302 129.517675,10.1453283 C129.287336,10.2968755 129.223638,10.6063094 129.375185,10.8366491 C130.0336,11.839517 131.142732,12.4381585 132.341525,12.4381585 C134.297449,12.4378566 135.888694,10.8466113 135.888694,8.89068679 C135.888392,6.93476226 134.297147,5.34351698 132.341223,5.34351698" id="Fill-31" fill="#2D2F33"></path>
                <path d="M98.5181283,7.92489057 C98.5181283,8.81304151 97.8572981,9.53606038 97.0437132,9.53606038 L96.3780528,9.53606038 L96.3774491,5.10707915 L97.0434113,5.10707915 C97.8569962,5.10677736 98.5178264,5.82949434 98.5181283,6.71764528 L98.5181283,7.92489057 Z M97.0431094,4.10873962 L96.3774491,4.10873962 L96.3774491,3.20398491 C96.3771472,2.92836226 96.1540528,2.70496604 95.8787321,2.70496604 C95.6031094,2.70496604 95.3797132,2.92836226 95.3797132,3.20398491 L95.3797132,9.53606038 L94.871034,9.53606038 C94.0583547,9.53636226 93.3966189,8.81364528 93.3966189,7.92519245 L93.396317,6.71824906 C93.396317,5.99975849 93.8403925,5.36156981 94.4755623,5.16624906 C94.7391094,5.0853434 94.8876377,4.80609811 94.8064302,4.54255094 C94.7255245,4.27930566 94.4465811,4.13138113 94.183034,4.21228679 C93.1318642,4.53500377 92.3985811,5.56564528 92.3985811,6.71824906 L92.3985811,7.92519245 C92.3985811,9.36398491 93.5077132,10.5347019 94.8716377,10.5344 L95.3797132,10.5344 L95.3800151,11.9596075 C95.3800151,12.2355321 95.6040151,12.4589283 95.8796377,12.4589283 C96.1552604,12.4589283 96.3780528,12.2352302 96.3780528,11.9596075 L96.3780528,10.5344 L97.0437132,10.5344 C98.4076377,10.5340981 99.5167698,9.36338113 99.5167698,7.92489057 L99.5164679,6.71764528 C99.5164679,5.27915472 98.407034,4.10873962 97.0431094,4.10873962 L97.0431094,4.10873962 Z" id="Fill-33" fill="#2D2F33"></path>
                <path d="M88.8256,2.70541887 C88.5499774,2.70541887 88.3271849,2.92911698 88.3271849,3.20443774 C88.3271849,3.48006038 88.5502792,3.70375849 88.8259019,3.70375849 L91.0435623,3.7034566 C91.3191849,3.7034566 91.5422792,3.47975849 91.5419777,3.20443774 C91.5419777,2.92881509 91.3191849,2.70541887 91.0435623,2.70541887 L88.8256,2.70541887 Z" id="Fill-35" fill="#2D2F33"></path>
                <path d="M91.3727698,5.98415094 C91.6483925,5.98415094 91.8717887,5.76045283 91.8717887,5.48513208 C91.8717887,5.20920755 91.6483925,4.98581132 91.3727698,4.98581132 L90.4342038,4.98611321 L90.4342038,4.62354717 C90.4342038,4.34792453 90.2102038,4.1245283 89.9345811,4.1245283 C89.6589585,4.1245283 89.4355623,4.34792453 89.4355623,4.62354717 L89.4355623,4.98611321 L88.4966943,4.98611321 C88.2210717,4.98611321 87.9973736,5.20981132 87.9973736,5.48543396 C87.9973736,5.7610566 88.2213736,5.98445283 88.4969962,5.98445283 L89.3486189,5.98415094 L87.9674868,9.8845283 C87.8751094,10.1444528 88.0112604,10.4297358 88.2714868,10.5218113 C88.3261283,10.541434 88.382883,10.5504906 88.4375245,10.5504906 C88.6434113,10.5504906 88.8360151,10.4230943 88.908166,10.2181132 L89.4358642,8.728 L89.436166,11.9603019 C89.436166,12.2359245 89.6595623,12.4593208 89.9351849,12.4593208 C90.2108075,12.4593208 90.4348075,12.2359245 90.4348075,11.96 L90.4345057,8.32649057 L90.9232604,9.23939623 C91.0132226,9.40724528 91.1852981,9.5029434 91.3637132,9.5029434 C91.4428075,9.5029434 91.5237132,9.48362264 91.5985811,9.4434717 C91.8419019,9.31335849 91.9327698,9.01086792 91.8032604,8.76815094 L90.4342038,6.21267925 L90.4342038,5.98415094 L91.3727698,5.98415094 Z" id="Fill-37" fill="#2D2F33"></path>
                <path d="M103.892528,3.20555472 C103.892528,3.48147925 104.115925,3.70457358 104.391547,3.70457358 L108.781585,3.7042717 L107.977057,4.44570566 C107.774189,4.63257358 107.761208,4.94834717 107.948679,5.15091321 C108.047094,5.25778113 108.18083,5.31181887 108.31517,5.31181887 C108.436528,5.31181887 108.557585,5.26804528 108.653585,5.17989434 L109.68483,4.22955472 C109.957736,3.98955472 110.052528,3.61581887 109.926038,3.27408302 C109.79834,2.92902642 109.478038,2.70623396 109.110038,2.70623396 L104.391547,2.70653585 C104.115925,2.70653585 103.892528,2.92993208 103.892528,3.20555472" id="Fill-39" fill="#2D2F33"></path>
                <path d="M111.454158,6.74741132 L107.469555,6.74771321 L107.469555,5.43722264 C107.469555,5.1616 107.24646,4.93820377 106.970234,4.93820377 C106.694611,4.93820377 106.471215,5.1616 106.471215,5.43722264 L106.471517,6.74771321 L102.341102,6.74831698 C102.064875,6.74831698 101.841479,6.97171321 101.841479,7.24733585 C101.841479,7.52295849 102.064875,7.7466566 102.341102,7.7466566 L106.471517,7.74605283 L106.471819,10.4506566 C106.471819,10.4648453 106.471517,10.4690717 106.472725,10.4829585 C106.476649,10.5671849 106.466687,11.3125434 105.093404,11.4643925 C104.818989,11.494883 104.621555,11.7415245 104.652045,12.0159396 C104.680725,12.2707321 104.896272,12.4597132 105.14714,12.4597132 C105.165555,12.4597132 105.18397,12.4585057 105.202687,12.4569962 C107.089781,12.2474868 107.510309,11.0556377 107.47046,10.4328453 L107.470158,7.74605283 L111.454158,7.74575094 C111.729781,7.74575094 111.953177,7.52205283 111.953177,7.24643019 C111.953177,6.97080755 111.729781,6.74741132 111.454158,6.74741132" id="Fill-41" fill="#2D2F33"></path>
            </g>
        </g>
    </g>
</svg>