<?xml version="1.0" encoding="UTF-8"?>
<svg width="27px" height="24px" viewBox="0 0 27 24" version="1.1" xmlns="http://www.w3.org/2000/svg" xmlns:xlink="http://www.w3.org/1999/xlink">
    <!-- Generator: Sketch 55 (78076) - https://sketchapp.com -->
    <title>会员</title>
    <desc>Created with Sketch.</desc>
    <g id="Page-1" stroke="none" stroke-width="1" fill="none" fill-rule="evenodd">
        <g id="数据分析-活动数据分析" transform="translate(-547.000000, -196.000000)" fill="#2295DB" fill-rule="nonzero">
            <g id="概况数据" transform="translate(230.000000, 147.000000)">
                <g id="编组-2备份" transform="translate(315.000000, 49.000000)">
                    <g id="会员" transform="translate(2.000000, 0.270030)">
                        <path d="M5.95744887,23 C5.9326368,23 5.90692247,22.9990229 5.87885583,22.9967755 C5.62354928,22.9756048 5.39231366,22.8554526 5.22703948,22.6584344 C5.06176531,22.4614161 4.98230223,22.211243 5.00331193,21.9537741 C5.19813503,19.5639222 5.83296961,17.5129326 6.89012498,15.8577708 C7.75174834,14.5083472 8.88839902,13.425154 10.2683691,12.6380581 C10.7051905,12.3887969 11.1679195,12.16924 11.6469214,11.9838168 C9.93231055,10.7385207 8.91607898,8.74925194 8.91607898,6.61250448 C8.91607898,2.96634771 11.8507348,0 15.4579589,0 C19.0652475,0 22,2.96634771 22,6.61250448 C22,10.2585961 19.0652797,13.2249438 15.4579589,13.2249438 C15.3335119,13.2249438 15.2074215,13.2211331 15.0731463,13.2132185 L15.0731463,13.2132185 C15.0242401,13.2208769 14.974827,13.2247532 14.9253372,13.2248135 C14.907711,13.225009 13.0422621,13.2549086 11.1496166,14.3559504 C10.0562098,14.9919197 9.15572497,15.8628518 8.47303853,16.9444817 C7.60284373,18.3235117 7.0769567,20.0623468 6.91003913,22.1126525 C6.86934089,22.6102302 6.45088691,23 5.95744891,23 L5.95744887,23 Z M15.4578945,1.93373626 C12.9055379,1.93373626 10.828993,4.03260437 10.828993,6.61250448 C10.828993,9.19243716 12.9055379,11.291403 15.4578945,11.291403 C18.0103478,11.291403 20.0867959,9.19243716 20.0867959,6.61250448 C20.0868604,4.03260437 18.0103478,1.93373626 15.4578945,1.93373626 Z" id="形状"></path>
                        <path d="M21.0858044,22.8596914 C20.6401247,22.2665799 19.61848,21.0060073 18.6306311,19.7869019 C17.6061456,18.5226361 16.5468195,17.215348 16.1246172,16.6462745 L16.1246173,16.6462747 C16.1024877,16.6193264 16.0809963,16.5918683 16.0601604,16.5639233 C15.9452874,16.4118874 15.8574511,16.3399352 15.5506769,16.3399352 L15.3751674,16.3399352 L15.3751674,15.2415709 L17.333951,15.2415709 C17.4258036,15.2415709 17.4814769,15.2588705 17.5452807,15.3561566 L21.1831102,19.9971865 L24.825903,15.3687588 C24.8908824,15.2703064 24.9436168,15.2401131 25.0480735,15.2401131 L27,15.2401131 L27,16.3399352 L26.8271028,16.3399352 C26.5218959,16.3399352 26.4336024,16.4124381 26.3171621,16.5662234 L26.3156274,16.568232 C26.3025662,16.5858556 26.2863051,16.6075611 26.265897,16.6320203 C25.8409518,17.2032643 24.7903767,18.5008983 23.7744136,19.7558664 C22.7769647,20.9877359 21.7456222,22.261753 21.2966118,22.8596916 L21.1912082,23 L21.0858045,22.8596916 L21.0858044,22.8596914 Z M0.970003523,21.0329286 C0.950803604,21.0329286 0.931277155,21.0322483 0.911587443,21.031244 C0.37689582,20.9986533 -0.0306453186,20.5418654 0.00181168737,20.012769 C0.256928979,15.8567766 2.29225101,13.6883623 3.95474196,12.6011423 C4.40567883,12.3063359 4.89073801,12.0498544 5.39924199,11.8371726 C4.01345191,10.6575908 3.22321851,8.96038073 3.22321851,7.14654401 C3.22321851,6.20390872 3.4476094,5.24063698 3.85505258,4.43422816 C4.28776912,3.57770225 4.89191351,2.82529807 5.60217991,2.25845992 L5.60217933,2.25846038 C5.66572878,2.20776696 5.73020426,2.15822686 5.79557378,2.109865 C5.99544232,1.96246182 6.20086187,1.82941019 6.40634671,1.71440331 C7.02825429,1.36675856 7.7403166,1.12372148 8.46560334,1.01156547 L8.46560327,1.01156548 C8.51527588,1.00389131 8.56547028,1.00002472 8.61574141,1 C9.09495572,1 9.49694586,1.34155424 9.5716884,1.81214297 C9.65482274,2.33498694 9.29342019,2.82818829 8.76604282,2.91147919 C7.20693103,3.15801507 5.8121614,4.35952923 5.37422039,5.83326954 C5.23727403,6.293945 5.16184577,6.7603546 5.16184577,7.14655096 C5.16184577,8.2623121 5.60850511,9.35079555 6.35661624,10.0581689 C6.8726957,10.5464136 7.68679839,11.161425 8.63432092,11.3186767 C9.15951055,11.405758 9.51683149,11.9009355 9.43088899,12.422516 L9.43088899,12.422516 C9.39180736,12.6637814 9.26092073,12.8809756 9.0652089,13.0293312 C8.89449941,13.1594672 8.68209215,13.2255233 8.43376666,13.2255233 C8.26837961,13.2255233 8.08261712,13.1966581 7.86700987,13.1373081 L7.86700989,13.1373081 C7.83322979,13.144129 7.7991163,13.1492112 7.76480689,13.1525343 C7.75184368,13.1539273 6.40239631,13.3038898 5.02153683,14.2069045 C3.1403366,15.4371541 2.10243077,17.4298833 1.93668453,20.1296617 C1.90566425,20.6361456 1.48104564,21.0329355 0.969994731,21.0329355 L0.970003523,21.0329286 Z" id="形状"></path>
                    </g>
                </g>
            </g>
        </g>
    </g>
</svg>