<?xml version="1.0" encoding="UTF-8"?>
<svg width="27px" height="23px" viewBox="0 0 27 23" version="1.1" xmlns="http://www.w3.org/2000/svg" xmlns:xlink="http://www.w3.org/1999/xlink">
    <!-- Generator: Sketch 55 (78076) - https://sketchapp.com -->
    <title>人数</title>
    <desc>Created with Sketch.</desc>
    <g id="Page-1" stroke="none" stroke-width="1" fill="none" fill-rule="evenodd">
        <g id="数据分析-活动数据分析" transform="translate(-823.000000, -197.000000)" fill="#2295DB" fill-rule="nonzero">
            <g id="概况数据" transform="translate(230.000000, 147.000000)">
                <g id="编组-2备份-2" transform="translate(591.000000, 50.000000)">
                    <g id="人数" transform="translate(2.000000, 0.000000)">
                        <path d="M25.875893,22.9999718 C25.2585263,22.9999718 24.7553546,22.4870954 24.7553546,21.8550294 L24.7446489,21.7466752 C24.7446489,21.7358398 24.751786,21.7250044 24.751786,21.7105571 C24.7018257,18.5610626 22.8889802,15.8738932 20.2803452,14.5952999 C19.834271,14.313579 19.8663884,14.3496971 19.5809009,14.183554 C19.2954134,14.0137991 18.0464057,13.5298172 17.964328,12.5221234 C17.8858189,11.5902775 18.4639311,11.1207428 18.9813772,10.9076462 L19.1562383,10.8317983 C20.4730493,10.0335892 21.6042935,8.89225863 21.6042935,7.21276192 C21.6042935,5.0529021 19.9056429,2.9436005 17.946485,2.44517837 C17.8215843,2.4054485 17.6824091,2.37294225 17.393353,2.31154155 C16.8188095,2.17790474 16.3263435,1.82394778 16.3263435,1.22077623 L16.3156378,1.11964567 C16.3156378,0.538144944 16.761712,0.0722220058 17.3255498,0.0397157543 L17.3576671,0.04332756 C20.8655876,0.296153961 23.6419465,3.25783465 23.6419465,6.9129891 C23.6419465,9.09090795 22.6320345,11.0051579 21.090402,12.2729229 C21.0547161,12.2982055 21.0225988,12.3343236 21.0333046,12.3776653 C21.0440103,12.4318423 21.126088,12.4535132 21.126088,12.4535132 C24.5305263,14.0788258 26.9036549,17.5642183 26.9678827,21.641961 C26.9714513,21.6744673 26.9892942,21.7033617 26.9892942,21.7394798 L27,21.847834 C26.9964314,22.4871236 26.4932597,23 25.875893,23 L25.875893,22.9999718 Z M14.2565662,12.381263 C17.735945,13.9776811 20.1697328,17.5100271 20.2375151,21.6455446 C20.2410837,21.6780509 20.2589267,21.7069453 20.2589267,21.7430634 L20.2696325,21.8514176 C20.2696325,22.4834836 19.7700294,22.99636 19.1490941,22.99636 C18.5317274,22.99636 18.0285557,22.4834836 18.0285557,21.8514176 L18.0178499,21.7430634 C18.0178499,21.732228 18.0214185,21.7286162 18.0214185,21.7177808 C17.964321,17.4305603 14.6383918,13.9776881 10.4773977,13.8006956 C10.3667713,13.8043074 9.93854011,13.8043074 9.82791371,13.8006956 C5.62767209,13.9848976 2.27319412,17.4955658 2.27319412,21.8369633 L2.27319412,21.8405751 L2.25178255,21.8405751 L2.25178255,21.8550223 C2.25178255,22.4870883 1.74861086,22.9999647 1.13124417,22.9999647 C0.510308883,22.9999647 0.0107057808,22.4870883 0.0107057808,21.8550223 L0,21.7466681 C0,21.6635966 0.0321173423,21.5877487 0.0463917166,21.5119008 C0.164155305,17.4269626 2.58723035,13.9451678 6.03448479,12.3740323 C4.43575486,11.1062885 2.88341665,9.44485785 2.88341665,7.21638078 C2.88341665,3.39509738 6.4163243,0 10.1526488,0 C13.8853837,0 16.911579,3.09892931 16.911579,6.92020565 C16.911579,9.15230159 15.8588438,11.117131 14.2565453,12.381263 L14.2565662,12.381263 Z M10.131286,2.3007273 C7.64754485,2.3007273 5.63485807,4.35945656 5.63485807,6.90577959 C5.63485807,9.44849082 7.64754485,11.5108319 10.131286,11.5108319 C12.6185957,11.5108319 14.6312686,9.45210263 14.6312686,6.90577959 C14.6312686,4.35945656 12.6150132,2.3007273 10.131286,2.3007273 Z" id="形状"></path>
                    </g>
                </g>
            </g>
        </g>
    </g>
</svg>