<?xml version="1.0" encoding="UTF-8"?>
<svg width="22px" height="23px" viewBox="0 0 22 23" version="1.1" xmlns="http://www.w3.org/2000/svg" xmlns:xlink="http://www.w3.org/1999/xlink">
    <!-- Generator: Sketch 55 (78076) - https://sketchapp.com -->
    <title>活动</title>
    <desc>Created with Sketch.</desc>
    <g id="Page-1" stroke="none" stroke-width="1" fill="none" fill-rule="evenodd">
        <g id="数据分析-活动数据分析" transform="translate(-280.000000, -200.000000)" fill-rule="nonzero" stroke="#2295DB" stroke-width="2">
            <g id="概况数据" transform="translate(230.000000, 147.000000)">
                <g id="编组-2" transform="translate(48.000000, 52.000000)">
                    <g id="活动" transform="translate(3.000000, 2.000000)">
                        <path d="M10,0.0123089001 L2.64479794,0.0123089001 C1.39625021,0.0800012866 0.403435157,1.11795121 0.403435157,2.38905646 L0.403435157,20.0718194 C0.403435157,20.2824179 0.508734498,20.4704531 0.681725344,20.5907944 C0.787024685,20.6584868 0.907366632,20.6960937 1.02018728,20.6960937 C1.10292249,20.6960937 1.18565748,20.681051 1.26839269,20.6509655 L10.0909671,16.8376277 L19.0790044,20.6284013 C19.2670387,20.703615 19.4926793,20.6885724 19.6656717,20.5757518 C19.8386634,20.4554098 19.9439619,20.2673746 19.9439619,20.0567768 L19.9439619,9.09812424 C19.9590047,8.9928249 19.966526,8.88752578 19.966526,8.78222644 L19.966526,2.36649982 C19.9590047,1.06530099 18.906012,0.0123163921 17.6048065,0.0123163921 L10,0.0123089001 Z" id="路径"></path>
                        <path d="M15.273196,7.8571117 L12.7159355,9.7148909 L13.6937136,12.71592 C13.7764489,12.9716461 13.6861923,13.2499385 13.4680724,13.4078874 C13.3552517,13.4906226 13.2349104,13.5282293 13.0995257,13.5282293 C12.9716622,13.5282293 12.8437996,13.4906224 12.7309789,13.4078874 L10.1737184,11.5501082 L7.61645777,13.4078874 C7.39833779,13.5658363 7.10500345,13.5658363 6.88688501,13.4078874 L6.88688504,13.4078874 C6.66928751,13.250777 6.57808921,12.9711018 6.66124375,12.7159201 L7.63902193,9.71489093 L5.08176135,7.85711172 L5.08176138,7.85711174 C4.86416385,7.70000129 4.77296555,7.42032618 4.85612009,7.16514439 C4.9388553,6.90941833 5.17953853,6.73642595 5.44278744,6.73642595 L8.60176547,6.73642595 L9.57954365,3.72788278 C9.66227887,3.47215672 9.9029621,3.29916433 10.166211,3.29916433 C10.4369805,3.29916433 10.6776653,3.47215606 10.7528784,3.72788278 L11.7306565,6.72891191 L14.8896346,6.72891191 C15.1604041,6.72891191 15.393566,6.90190364 15.4838226,7.15763036 C15.5740791,7.42087927 15.4913439,7.69916945 15.2732241,7.85711836 L15.273196,7.8571117 Z" id="路径"></path>
                    </g>
                </g>
            </g>
        </g>
    </g>
</svg>