<?xml version="1.0" encoding="UTF-8"?>
<svg width="23px" height="23px" viewBox="0 0 23 23" version="1.1" xmlns="http://www.w3.org/2000/svg" xmlns:xlink="http://www.w3.org/1999/xlink">
    <!-- Generator: Sketch 55 (78076) - https://sketchapp.com -->
    <title>分享</title>
    <desc>Created with Sketch.</desc>
    <g id="Page-1" stroke="none" stroke-width="1" fill="none" fill-rule="evenodd">
        <g id="数据分析-活动数据分析" transform="translate(-1103.000000, -197.000000)" fill="#2295DB" fill-rule="nonzero">
            <g id="概况数据" transform="translate(230.000000, 147.000000)">
                <g id="编组-2备份-3" transform="translate(871.000000, 50.000000)">
                    <g id="分享" transform="translate(2.000000, 0.000000)">
                        <path d="M18.4,3.68 L18.4,3.68 C18.4,2.66379675 17.5762032,1.84 16.56,1.84 C15.5437968,1.84 14.72,2.66379675 14.72,3.68 C14.72,4.69620325 15.5437968,5.52 16.56,5.52 L16.5599999,5.52 C17.5762032,5.52000004 18.3999999,4.69620325 18.3999999,3.68 L18.4,3.68 Z M20.24,3.68 L20.24,3.68 C20.24,5.7124065 18.5924065,7.36 16.56,7.36 C14.5275935,7.36 12.88,5.7124065 12.88,3.68 C12.88,1.6475935 14.5275935,0 16.56,0 L16.5599998,3.26849658e-15 C18.5924063,-8.88395091e-08 20.2399998,1.64759063 20.2399998,3.68 L20.24,3.68 Z M5.52,11.04 L5.52,11.04 C5.52,10.0237967 4.69620325,9.2 3.68,9.2 C2.66379675,9.2 1.84,10.0237967 1.84,11.04 C1.84,12.0562032 2.66379675,12.88 3.68,12.88 L3.67999992,12.88 C4.69620317,12.88 5.51999992,12.0562032 5.51999992,11.04 L5.52,11.04 Z M7.36,11.04 L7.36,11.04 C7.36,13.0724065 5.7124065,14.72 3.68,14.72 C1.6475935,14.72 0,13.0724065 0,11.04 C0,9.0075935 1.6475935,7.36 3.68,7.36 L3.67999984,7.36 C5.71240634,7.35999991 7.35999984,9.00759062 7.35999984,11.04 C7.35999984,11.04 7.35999984,11.04 7.35999984,11.04 L7.36,11.04 Z M21.16,18.4 L21.16,18.4 C21.16,16.8756951 19.9243049,15.64 18.4,15.64 C16.8756951,15.64 15.64,16.8756951 15.64,18.4 C15.64,19.9243049 16.8756951,21.16 18.4,21.16 L18.3999999,21.16 C19.9243048,21.1600001 21.1599999,19.9243049 21.1599999,18.4 L21.16,18.4 Z M23,18.4 L23,18.4 C23,20.940511 20.940511,23 18.4,23 C15.859489,23 13.8,20.940511 13.8,18.4 C13.8,15.859489 15.859489,13.8 18.4,13.8 L18.3999998,13.8 C20.9405108,13.7999999 22.9999998,15.859489 22.9999998,18.4 L23,18.4 Z M6.854,10.0188 L6.85400003,10.0188 C6.41863591,10.2807665 5.85333903,10.1402009 5.59137191,9.70483848 C5.32940536,9.26947436 5.46997101,8.70417748 5.90533341,8.44221036 C5.94400417,8.41894146 5.98433467,8.39854974 6.02599831,8.38119998 L13.3859983,4.70119998 L13.3859983,4.70119998 C13.8213624,4.43923343 14.3866593,4.57979908 14.6486264,5.01516148 C14.910593,5.45052561 14.7700273,6.01582248 14.3346649,6.27778961 C14.2959942,6.30105851 14.2556637,6.32145022 14.214,6.33879998 L6.854,10.0188 Z M5.9892,12.7604 L5.98920001,12.7604 C5.54715151,12.5063489 5.39474776,11.9420485 5.64880001,11.5 C5.90285111,11.0579515 6.46715151,10.9055478 6.90920001,11.1596 L15.1892,15.7596 L15.1892,15.7596 C15.6312485,16.0136511 15.7836523,16.5779515 15.5296,17.02 C15.2755489,17.4620485 14.7112485,17.6144523 14.2692,17.3604 C14.2692,17.3604 14.2692,17.3604 14.2692,17.3604 L5.9892,12.7604 Z" id="形状"></path>
                    </g>
                </g>
            </g>
        </g>
    </g>
</svg>