<?xml version="1.0" standalone="no"?><!DOCTYPE svg PUBLIC "-//W3C//DTD SVG 1.1//EN" "http://www.w3.org/Graphics/SVG/1.1/DTD/svg11.dtd"><svg t="1590400808930" class="icon" viewBox="0 0 1024 1024" version="1.1" xmlns="http://www.w3.org/2000/svg" p-id="8621" xmlns:xlink="http://www.w3.org/1999/xlink" width="200" height="200"><defs><style type="text/css"></style></defs><path d="M503.577 473.162c-10.86 0-21.72-4.144-30.01-12.428l-116.31-116.298c-16.582-16.58-16.582-43.454 0-60.029 16.552-16.58 43.44-16.573 60.02-0.006l116.312 116.3c16.58 16.58 16.58 43.453 0 60.026-8.277 8.29-19.15 12.435-30.012 12.435z" p-id="8622" fill="#2295DB"></path><path d="M528.78 473.162c-10.86 0-21.72-4.144-30.01-12.428-16.58-16.573-16.58-43.447 0-60.03l116.285-116.31c16.552-16.581 43.44-16.573 60.021-0.007 16.58 16.572 16.58 43.448 0 60.027L558.792 460.726c-8.276 8.291-19.151 12.436-30.012 12.436z" p-id="8623" fill="#2295DB"></path><path d="M667.808 528.197H364.55c-23.447 0-42.446-19.006-42.446-42.447 0-23.44 18.999-42.446 42.446-42.446h303.257c23.447 0 42.445 19.006 42.445 42.446 0.001 23.44-18.997 42.447-42.445 42.447zM667.808 669.683H364.55c-23.447 0-42.446-19.006-42.446-42.445 0-23.441 18.999-42.446 42.446-42.446h303.257c23.447 0 42.445 19.005 42.445 42.446 0.001 23.438-18.997 42.445-42.445 42.445z" p-id="8624" fill="#2295DB"></path><path d="M516.178 787.543c-23.447 0-42.445-19.005-42.445-42.447V489.742c0-23.44 18.998-42.446 42.445-42.446s42.447 19.005 42.447 42.446v255.353c0 23.442-18.999 42.448-42.447 42.448z" p-id="8625" fill="#2295DB"></path><path d="M516.054 968.615c-61.541 0.007-122.972-12.707-181.058-38.074-228.797-99.924-333.648-367.34-233.73-596.122C149.647 223.592 238.304 138.237 350.9 94.089c112.583-44.158 235.623-41.801 346.436 6.592 21.486 9.383 31.297 34.397 21.914 55.883-9.366 21.472-34.362 31.323-55.875 21.908-90.046-39.33-190.027-41.21-281.481-5.355-91.485 35.877-163.512 105.224-202.83 195.27-81.182 185.889 4.006 403.168 189.91 484.358 90.003 39.308 190.012 41.21 281.481 5.355 91.47-35.87 163.498-105.219 202.82-195.27 57.217-130.979 32.858-284.715-62.08-391.668-15.559-17.534-13.955-44.367 3.578-59.924 17.548-15.551 44.353-13.956 59.926 3.565 116.81 131.62 146.793 320.812 76.367 482.002-48.387 110.822-137.038 196.177-249.62 240.321-53.57 21.01-109.528 31.489-165.39 31.489z" p-id="8626" fill="#2295DB"></path></svg>