<?xml version="1.0" encoding="UTF-8"?>
<svg width="20px" height="23px" viewBox="0 0 20 23" version="1.1" xmlns="http://www.w3.org/2000/svg" xmlns:xlink="http://www.w3.org/1999/xlink">
    <!-- Generator: Sketch 55 (78076) - https://sketchapp.com -->
    <title>优惠券</title>
    <desc>Created with Sketch.</desc>
    <g id="Page-1" stroke="none" stroke-width="1" fill="none" fill-rule="evenodd">
        <g id="数据分析-活动数据分析" transform="translate(-1378.000000, -197.000000)" fill="#2295DB" fill-rule="nonzero">
            <g id="概况数据" transform="translate(230.000000, 147.000000)">
                <g id="编组-2备份-4" transform="translate(1145.000000, 50.000000)">
                    <g id="优惠券" transform="translate(3.000000, 0.000000)">
                        <path d="M12.6996648,11.1946401 L11.0270197,11.1946401 L12.8929267,9.0002287 L12.8929267,9.00022869 C12.9985818,8.87070864 12.9985818,8.67749717 12.8929267,8.54797712 L12.5089803,8.09450012 L12.5089803,8.09450012 C12.4169812,7.98045202 12.2560682,7.96786494 12.1495682,8.06638557 C12.1401904,8.07506096 12.131416,8.0844574 12.1233148,8.09450012 L9.98425406,10.6108554 L7.8689649,8.12424475 L7.8689649,8.12424475 C7.77692851,8.01112803 7.61668926,7.99932813 7.51106178,8.09788893 C7.50230428,8.10606044 7.4940812,8.11486643 7.48645063,8.12424475 L7.10536603,8.57312239 L7.10536601,8.57312242 C6.99949155,8.70138655 6.99949155,8.89404172 7.10536605,9.02230699 L8.95352236,11.1946423 L7.30149193,11.1946423 L7.30149192,11.1946423 C7.13545877,11.1946394 7.00085971,11.3387749 7.0008576,11.5165772 C7.00085759,11.5171922 7.00085923,11.5178072 7.00086251,11.5184221 L7.00086251,12.1623031 L7.0008625,12.1623071 C7.00054784,12.3404989 7.13510014,12.4852711 7.30149471,12.4857766 L9.40074862,12.4857766 L9.40074862,13.7766056 L7.300637,13.7766056 L7.30063699,13.7766056 C7.13492037,13.776263 7.00032089,13.9198484 7.00000056,14.0973128 C6.9999989,14.0982352 7.00000094,14.0991577 7.0000067,14.1000801 L7.0000067,14.7439611 L7.00000669,14.743949 C7.0001583,14.921682 7.13465717,15.0657259 7.30062415,15.0659019 L9.39987805,15.0659019 L9.39987805,16.6780587 L9.39987804,16.6780471 C9.40002956,16.8556607 9.53435445,16.9996547 9.700211,17 L10.2991973,17 L10.2991973,17 C10.4650998,16.9996626 10.5995113,16.8557221 10.5998274,16.6780584 L10.5998274,15.0643669 L12.6990813,15.0643669 L12.6990813,15.0643669 C12.8650026,15.0641977 12.9994248,14.9201093 12.9994248,14.7424253 L12.9994248,14.0985443 L12.9994248,14.0985433 C13.000215,13.9207421 12.8662607,13.7759201 12.7002298,13.7750738 C12.6998469,13.7750718 12.699464,13.7750706 12.6990811,13.7750703 L10.6004004,13.7750703 L10.6004004,12.487306 L12.6996543,12.487306 L12.6996543,12.487306 C12.8656872,12.4871387 13.0001579,12.3428651 12.9999999,12.1650619 C12.9999995,12.1646519 12.9999984,12.1642418 12.9999966,12.1638317 L12.9999966,11.5199507 L12.9999966,11.519948 C13.0006284,11.3418074 12.8662888,11.1968486 12.6999397,11.1961716 C12.6998431,11.1961712 12.6997466,11.1961708 12.69965,11.1961705 L12.6996648,11.1946401 Z" id="路径"></path>
                        <path d="M20,21.7228698 L20,1.28973941 L20,1.28975094 C19.9988124,0.581886313 19.4164304,0.00899711667 18.6992108,0.0101696246 C18.6991064,0.0101697954 18.6990019,0.0101699785 18.6988975,0.0101701741 L13.4610474,0.0101701741 C13.4610474,0.0101701741 12.7010326,-0.130207109 12.5142776,0.632102549 L12.4951072,0.701986046 C12.4239911,0.936355118 12.1296334,1.73803162 11.3127266,2.21775585 L11.3096346,2.21928168 C11.2719122,2.24155895 11.2332621,2.26261551 11.1939937,2.28031521 L11.1228776,2.31601988 L11.0894839,2.33188863 L11.0103287,2.36606746 L11.0103285,2.36606756 C10.1737468,2.71495831 9.21328311,2.60722684 8.47736277,2.08195675 C7.92017267,1.67852415 7.65395148,1.12922213 7.54480344,0.836870071 C7.52285022,0.769733208 7.50058777,0.702290863 7.4829635,0.633628167 L7.47956229,0.633628167 C7.29404224,-0.129292678 6.53309972,0.0120012727 6.53309972,0.0120012727 L1.29864075,0.0120012727 L1.29864082,0.0120012727 C0.582989302,0.0119978513 0.00221445055,0.583423711 3.71966822e-08,1.28974072 L3.71966822e-08,21.7213437 L0,21.7213308 C0.00203787932,22.4277669 0.582854989,22.9993825 1.29862712,22.999387 L6.74703984,22.999387 L6.74703984,22.999387 C6.86371667,22.9992179 6.978124,22.9675592 7.07788412,22.9078366 L7.07788417,22.9078365 C7.28543524,22.7979175 7.43189899,22.6017064 7.47675167,22.3734874 L7.48324489,22.3750132 L7.48324489,22.3750132 C7.51666045,22.2435178 7.56113329,22.1150039 7.61620095,21.9908057 L7.61620092,21.9908058 C8.18010936,20.6925407 9.70360299,20.0912665 11.0190237,20.6478192 C11.3501525,20.7879195 11.6480423,20.9946255 11.8936783,21.2547403 L11.8936783,21.2547403 C12.1376689,21.5238489 12.3277807,21.8361538 12.4539477,22.1751276 C12.4777561,22.2422645 12.4969264,22.3094016 12.5157876,22.3765387 L12.5173336,22.3765387 L12.5173336,22.3765386 C12.5631439,22.6131314 12.7191754,22.8146163 12.9384636,22.9203487 L12.9384635,22.9203486 C13.034483,22.9725991 13.1423452,23.0000005 13.251993,22.9999976 L18.6988581,22.9999976 L18.6988581,22.9999976 C19.4155952,23.0013479 19.9979268,22.4293434 19.9999728,21.7219527 L20,21.7228698 Z M1.94920836,21.7228698 L1.94920839,21.7228698 C1.59132232,21.7228712 1.300911,21.4370653 1.29988914,21.0838484 L1.29988914,1.93059364 L1.29988912,1.93060006 C1.30090806,1.57738091 1.59131548,1.29157423 1.94920382,1.29157198 L6.32438848,1.29157198 L6.32438828,1.29157143 C6.87891789,2.82464808 8.35019416,3.84804314 9.99954066,3.84797576 L9.99954076,3.84797576 C11.6488281,3.8478788 13.1200201,2.82454251 13.6746931,1.29159389 L18.0495592,1.29159389 L18.0495592,1.29159389 C18.4074452,1.29159245 18.6978566,1.57739833 18.6988784,1.93061523 L18.6988784,21.08387 L18.6988784,21.0838636 C18.6978595,21.4370828 18.4074521,21.7228894 18.0495637,21.7228917 L13.6746749,21.7228917 L13.6746751,21.722892 C12.9499201,19.7196284 10.7169653,18.6755393 8.68723811,19.3908365 C7.5851817,19.7792152 6.7178827,20.6352044 6.3243703,21.722892 L1.94920836,21.7228698 Z" id="形状"></path>
                    </g>
                </g>
            </g>
        </g>
    </g>
</svg>