<?xml version="1.0" standalone="no"?><!DOCTYPE svg PUBLIC "-//W3C//DTD SVG 1.1//EN" "http://www.w3.org/Graphics/SVG/1.1/DTD/svg11.dtd"><svg t="1590401059567" class="icon" viewBox="0 0 1024 1024" version="1.1" xmlns="http://www.w3.org/2000/svg" p-id="1763" xmlns:xlink="http://www.w3.org/1999/xlink" width="200" height="200"><defs><style type="text/css"></style></defs><path d="M704 448h238.016c9.919 0 17.984 9.152 17.984 20.48 0 3.2-0.64 6.208-1.793 8.896-2.304 7.168-8.449 17.856-14.592 25.025-66.112 76.672-382.144 435.072-382.144 435.072-26.368 30.017-69.184 30.016-95.551 0L83.776 502.401c-13.184-15.039-33.472-45.12-4.928-54.4 15.936 0.064 104.129 0 241.152 0v-345.6c0-21.184 17.216-38.399 38.4-38.4h307.2c21.184 0 38.399 17.216 38.4 38.4v345.6z" p-id="1764" fill="#3CC563"></path></svg>