<?xml version="1.0" encoding="UTF-8"?>
<svg width="20px" height="23px" viewBox="0 0 20 23" version="1.1" xmlns="http://www.w3.org/2000/svg" xmlns:xlink="http://www.w3.org/1999/xlink">
    <!-- Generator: Sketch 55 (78076) - https://sketchapp.com -->
    <title>金额</title>
    <desc>Created with Sketch.</desc>
    <g id="Page-1" stroke="none" stroke-width="1" fill="none" fill-rule="evenodd">
        <g id="数据分析-活动数据分析" transform="translate(-1645.000000, -197.000000)" fill="#2295DB" fill-rule="nonzero">
            <g id="概况数据" transform="translate(230.000000, 147.000000)">
                <g id="编组-2备份-5" transform="translate(1411.000000, 50.000000)">
                    <g id="金额" transform="translate(4.000000, 0.000000)">
                        <path d="M13.7723359,15.1088272 L13.7723359,15.1088272 C14.0480272,15.1085322 14.2715774,14.8596099 14.2722863,14.5521344 L14.2722863,14.5521337 C14.2722863,14.2440418 14.0485805,13.9941465 13.7723359,13.9936532 L10.9807804,13.9936532 L13.5399483,11.1376542 L13.5399483,11.1376542 C13.7342049,10.9196893 13.7342049,10.5676886 13.5399483,10.3497237 L13.5399483,10.3497237 C13.3445672,10.1320835 13.0280438,10.1320835 12.8326633,10.3497237 L10.2726924,13.2048272 L7.71191855,10.3497237 L7.71191856,10.3497237 C7.51863186,10.1318957 7.20361192,10.1300653 7.00830046,10.3456353 C7.00707215,10.346991 7.00585019,10.3483538 7.00463463,10.3497237 L7.0046346,10.3497237 C6.81037803,10.5676886 6.81037803,10.9196893 7.00463466,11.1376542 L9.56460556,13.9936532 L6.77224709,13.9936532 L6.77224706,13.9936532 C6.49600302,13.9941473 6.27229666,14.2440439 6.27229666,14.5521372 L6.27229665,14.5521336 C6.27300256,14.8596077 6.49655131,15.1085326 6.77224391,15.1088299 L9.77194005,15.1088299 L9.77194005,16.2240033 L6.77224705,16.2240033 L6.77224702,16.2240033 C6.49600299,16.2244973 6.27229662,16.474394 6.27229662,16.7824873 L6.27229663,16.7824925 C6.27265315,17.0902758 6.49628279,17.3396821 6.77225017,17.3400739 L9.7719463,17.3400739 L9.7719463,19.6275592 L9.7719463,19.6275593 C9.77194635,19.9355059 9.99578128,20.1851477 10.2718967,20.1851477 C10.5480109,20.1851476 10.7718471,19.9355073 10.7718471,19.6275593 L10.7718471,17.340074 L13.7723462,17.340074 L13.7723462,17.340074 C14.0483139,17.3396793 14.2719422,17.0902703 14.2722966,16.7824856 L14.2722966,16.7824849 C14.2722966,16.474393 14.0485909,16.2244977 13.7723462,16.2240044 L10.7718439,16.2240044 L10.7718439,15.1088311 L13.7723431,15.1088311 L13.7723359,15.1088272 Z M14.2611351,6.73468177 C15.2157525,6.07850602 16.4850996,5.09182405 16.4850996,3.77878082 C16.4850996,2.46297338 16.0091444,1.80472244 15.5304822,1.47767216 C15.0695677,1.19060439 14.5545922,1.015459 13.9854258,1.015459 C13.5753177,1.015459 13.1364856,1.10649062 12.6700142,1.31304052 C12.0411001,0.337564029 11.0996235,0.00705510117 10.0023353,0.000691729567 L10.0023353,0 L9.99759341,0 L9.99759341,0.000691729567 C8.90031058,0.00691729567 7.95869903,0.337564029 7.32991452,1.31304052 C6.86358076,1.10649008 6.42461365,1.015459 6.01450297,1.015459 C5.44533657,1.015459 4.93022605,1.19046658 4.46944659,1.47767216 C3.9907817,1.80472244 3.51482913,2.46297068 3.51482913,3.77878082 C3.51482913,5.09182134 4.78417623,6.07850602 5.73879369,6.73468177 C3.83362328,8.04979748 -0.3002589,11.3368991 0.0173074298,17.579191 C-0.300266838,22.5063861 3.99076318,23 3.99076318,23 L16.0092502,23 C16.0092502,23 20.3002988,22.5063807 19.982706,17.579191 C20.3001453,11.3370342 16.1662737,8.04977857 14.2610874,6.73468177 L14.2611351,6.73468177 Z M15.9111913,21.5484758 L4.09159003,21.5484758 C3.47161725,21.4462381 1.23111151,20.8538415 1.43624227,17.67452 C1.43962936,17.6177982 1.43962936,17.5610763 1.43691969,17.5036628 C1.2400619,13.6276264 2.95528419,10.4084629 6.53502226,7.93717796 L6.53502222,7.93717799 C6.92654888,7.66708948 7.16095417,7.21590941 7.16041435,6.73343074 L7.16041433,6.73341687 C7.15974168,6.25092739 6.92467802,5.80021424 6.53297937,5.53036675 C5.47349701,4.80280505 4.93643919,4.21317585 4.93643919,3.77890748 C4.93643919,3.22358645 5.05444547,2.82515022 5.20930384,2.7172404 C5.47945882,2.54915012 5.74283962,2.46724934 6.01448439,2.46724934 C6.24561955,2.46724934 6.49802616,2.52742981 6.76479405,2.64516218 L6.76479416,2.64516223 C7.39847143,2.92539647 8.13771748,2.70036063 8.51768304,2.11156313 C8.73581175,1.77330737 9.06625697,1.45884603 9.9941852,1.45192873 L9.9941852,1.45262046 C10.9322747,1.45829264 11.2643447,1.77261564 11.4823384,2.11156313 L11.4823384,2.11156303 C11.8623039,2.7003627 12.60155,2.92539638 13.2352272,2.64516214 C13.5019951,2.52756811 13.7543996,2.46724929 13.9855369,2.46724929 C14.2570467,2.46724929 14.5204275,2.54915007 14.7399111,2.68431403 C14.9455753,2.82501182 15.0635821,3.22358748 15.0635821,3.77890582 C15.0635821,4.21303637 14.5266592,4.80266558 13.4670419,5.53036508 L13.4670419,5.53036509 C13.07533,5.80021825 12.8402288,6.25091762 12.8394826,6.73342061 L12.8394826,6.73341444 C12.8389416,7.21589312 13.0733452,7.66707373 13.4648694,7.9371644 C17.0446287,10.4084385 18.7598467,13.6277479 18.562972,17.5036492 C18.5602623,17.5610628 18.5602623,17.6177846 18.5636494,17.6745064 C18.770262,20.8684866 16.5071422,21.4517552 15.9111595,21.5484622 L15.9111913,21.5484758 Z" id="形状"></path>
                    </g>
                </g>
            </g>
        </g>
    </g>
</svg>