<?xml version="1.0" standalone="no"?><!DOCTYPE svg PUBLIC "-//W3C//DTD SVG 1.1//EN" "http://www.w3.org/Graphics/SVG/1.1/DTD/svg11.dtd"><svg t="1590401415994" class="icon" viewBox="0 0 1024 1024" version="1.1" xmlns="http://www.w3.org/2000/svg" p-id="16572" xmlns:xlink="http://www.w3.org/1999/xlink" width="200" height="200"><defs><style type="text/css"></style></defs><path d="M348.689998 442.256436h113.901438v64.932087h-72.818061c-23.594324 0.826755-42.736888 19.96932-43.62724 43.62724-0.445176 12.01975 3.87939 23.594324 12.083347 32.434245 8.267553 8.776325 19.460547 13.991243 31.734683 14.309226h72.690867v109.831258a32.063597 32.063597 0 0 0 0 3.49781c0.381579 12.01975 5.469304 23.212744 14.372823 31.480297 8.394746 7.822377 19.269757 12.083346 30.653541 12.083346 0.635966 0 1.208335 0 1.780704-0.063596 12.01975-0.381579 23.212744-5.532901 31.480297-14.309226 8.203956-8.903518 12.528522-20.414496 12.083346-32.243456V597.559234h70.147005c24.929851 0 45.153557-20.223706 45.153557-45.153558 0-24.929851-20.223706-45.217154-45.153557-45.217153h-70.147005v-64.995684h111.484768c24.929851 0 45.217154-20.287302 45.217154-45.217154 0-24.929851-20.287302-45.217154-45.217154-45.217153H560.339347l93.614136-75.679906v-0.190789c8.076763-7.377201 13.037295-17.361861 14.182032-28.364066 1.271931-11.956153-2.22588-23.785113-10.111853-33.388194-7.567991-9.348694-18.379406-15.199578-30.271962-16.407912-12.01975-1.208335-23.721517 2.289476-33.006614 9.921063l-89.289569 72.182095-86.300531-73.962798c-18.315809-14.372822-45.217154-12.401329-61.116294 4.706145-16.980281 18.252213-15.962736 46.934261 2.480266 64.105332l90.052728 77.07903H348.689998c-24.929851 0-45.217154 20.287302-45.217154 45.28075 0 24.929851 20.287302 45.217154 45.217154 45.217154" fill="#2295db" p-id="16573"></path><path d="M861.31702 84.996802v803.47893L733.296153 819.982238c-16.407912-14.500016-40.701798-14.309226-55.964973-0.19079L506.511816 924.916561 336.645406 820.554607c-8.013166-7.440797-18.379406-11.192994-28.745645-11.192995-10.048256 0-20.160109 3.561407-28.173276 10.620626l-127.956277 68.493494V84.996802h709.546812zM903.863118 0.031798H109.287706c-23.339937 0-42.418905 19.078968-42.482502 42.482502v938.812409c0 17.171071 9.79387 32.052666 25.502221 38.984691 5.660094 2.480266 11.574574 3.6886 17.36186 3.6886 10.239046 0 20.032916-3.6886 27.410118-10.684222l170.883954-105.061516 169.802814 104.298357c16.153526 14.881595 41.40136 14.881595 56.537341 0.763159l170.883955-105.061516 169.86641 104.298357c17.361861 16.026333 44.199609 14.754402 60.098749-2.543862 7.186411-7.822377 11.129398-18.061423 11.129397-28.682048V42.5143c0-23.403534-19.015371-42.482502-42.418905-42.482502z" fill="#2295db" p-id="16574"></path></svg>