<?xml version="1.0" encoding="UTF-8"?>
<svg width="120px" height="14px" viewBox="0 0 120 14" version="1.1" xmlns="http://www.w3.org/2000/svg" xmlns:xlink="http://www.w3.org/1999/xlink">
    <title>编组</title>
    <defs>
        <filter id="filter-1">
            <feColorMatrix in="SourceGraphic" type="matrix" values="0 0 0 0 1.000000 0 0 0 0 1.000000 0 0 0 0 1.000000 0 0 0 1.000000 0"></feColorMatrix>
        </filter>
        <polygon id="path-2" points="0.174522719 0.0821509434 1.36716684 0.0821509434 1.36716684 10.7302868 0.174522719 10.7302868"></polygon>
        <polygon id="path-4" points="0 0.189369811 7.15122341 0.189369811 7.15122341 10.8211812 0 10.8211812"></polygon>
    </defs>
    <g id="Page-1" stroke="none" stroke-width="1" fill="none" fill-rule="evenodd">
        <g id="编组" transform="translate(-11.000000, -18.000000)" filter="url(#filter-1)">
            <g transform="translate(11.000000, 18.000000)">
                <path d="M59.8922113,9.5560566 L59.8906264,9.5560566 L56.2189283,9.56583019 C55.2988906,9.569 54.9998717,9.45198113 54.5920226,8.93583019 L51.2573811,4.83964151 C51.2494566,4.83039623 51.2417962,4.82141509 51.2338717,4.81269811 C50.6302868,4.15760377 49.6288906,3.37756604 48.2817208,3.37783012 L48.2722113,3.37783012 C47.2396453,3.381 46.2427396,3.8155283 45.5374566,4.57020755 C44.8224,5.33545283 44.4663245,6.335 44.5342113,7.3839434 C44.6575698,9.28107547 46.2437962,10.8205472 48.1448906,10.888434 C48.1919094,10.890283 48.2386642,10.8910755 48.2851547,10.8910755 C49.2720226,10.8910755 50.1991925,10.5141321 50.9092302,9.8204717 C50.9171547,9.81281132 51.1099849,9.62209434 51.3054566,9.37326415 C51.5040981,9.12020755 51.4599849,8.75383019 51.2069283,8.55545283 C50.9544,8.35707547 50.5880226,8.40092453 50.3893811,8.65398113 C50.2425132,8.84179245 50.0937962,8.98918868 50.0937962,8.98918868 C49.5821358,9.48922642 48.9061736,9.75073585 48.1868906,9.72511321 C46.8756453,9.67783019 45.7812679,8.6164717 45.6964755,7.30866038 C45.6491925,6.58356604 45.895117,5.89333962 46.3882868,5.36530189 C46.8822491,4.83673585 47.5521358,4.54432075 48.275117,4.5424717 L48.2814566,4.5424717 C49.199117,4.54220755 49.9189283,5.10801887 50.3658717,5.58903774 L53.6836075,9.66488679 C54.3894189,10.5566604 55.1118717,10.7304717 56.1925132,10.7302075 L56.221834,10.7302075 L59.8937962,10.7206981 C60.2157962,10.7196415 60.4754566,10.4583962 60.4744032,10.1366604 C60.4736075,9.81571698 60.2131547,9.5560566 59.8922113,9.5560566" id="Fill-1" fill="#2D2F33"></path>
                <path d="M67.611917,4.79090566 C67.6055774,4.78271698 67.5981811,4.7745283 67.5910491,4.76686792 C66.7449736,3.83679245 65.6912755,3.32645283 64.6267472,3.32934615 C63.5944453,3.33226415 62.5980679,3.76679245 61.8930491,4.5214717 C61.1777283,5.28698113 60.8213887,6.28626415 60.8898038,7.3354717 C61.0131623,9.23260377 62.5985962,10.7720755 64.500483,10.8399623 C64.5469736,10.8420755 64.5934642,10.8428679 64.6399547,10.8428679 C65.6270868,10.8428679 66.5539925,10.4656604 67.2645585,9.772 C67.272483,9.76433962 67.4650491,9.57362264 67.6610491,9.3245283 C67.8596906,9.0714717 67.8153132,8.70509434 67.5622566,8.50671698 C67.3092,8.30833962 66.9433509,8.35245283 66.7449736,8.60550943 C66.5973132,8.79332075 66.4491245,8.94018868 66.4493887,8.94018868 C65.9369358,9.44075472 65.2609736,9.70226415 64.5419547,9.67664151 C63.2304453,9.62935849 62.1363321,8.56773585 62.0512755,7.25992453 C62.0042566,6.53483019 62.2501811,5.84460377 62.7433509,5.31656604 C63.2370491,4.788 63.9077283,4.49584906 64.6304453,4.49373585 L64.6367849,4.49373585 C65.5639547,4.49373585 66.2792755,5.05901887 66.7193509,5.53924528 L70.7579547,10.4978868 C70.9613509,10.7472453 71.3274642,10.7847547 71.5773509,10.5816226 C71.8264453,10.3784906 71.864483,10.0118491 71.6608226,9.76249057 L67.611917,4.79090566 Z" id="Fill-3" fill="#2D2F33"></path>
                <g transform="translate(41.735849, 0.182000)">
                    <mask id="mask-3" fill="white">
                        <use xlink:href="#path-2"></use>
                    </mask>
                    <g id="Clip-6"></g>
                    <path d="M0.756713208,0.0820981132 L0.755128302,0.0820981132 C0.433392453,0.083154717 0.173732075,0.3444 0.174522719,0.666135849 L0.201996226,10.1494189 C0.20305283,10.4703623 0.464033962,10.7302868 0.784449057,10.7302868 L0.786033962,10.7302868 C1.10750566,10.7292302 1.36769434,10.4674566 1.36716684,10.1462491 L1.33890189,0.662701887 C1.33810943,0.341758491 1.07792075,0.0820981132 0.756713208,0.0820981132" id="Fill-5" fill="#2D2F33" mask="url(#mask-3)"></path>
                </g>
                <path d="M55.9725283,8.45507547 C56.0797736,8.54092453 56.2086792,8.58213208 56.3357358,8.58213208 C56.5063774,8.58213208 56.6756981,8.50737736 56.7911321,8.36341509 L59.3042642,5.21896226 C59.3084906,5.21367925 59.3129811,5.20839623 59.3164151,5.20311321 C59.5816226,4.84730189 59.6223019,4.38001887 59.4231321,3.9835283 C59.2239623,3.58809434 58.8253585,3.34269811 58.3842264,3.34269811 L58.3807925,3.34269811 L54.2687547,3.34401887 C53.947283,3.34401887 53.6870943,3.60473585 53.6870943,3.9259434 C53.6870943,4.2479434 53.9475472,4.50866038 54.269283,4.50839623 L58.3821132,4.50733962 L55.8811321,7.6364717 C55.6806415,7.8879434 55.7213208,8.2540566 55.9725283,8.45507547" id="Fill-7" fill="#2D2F33"></path>
                <path d="M36.7343887,3.40590943 L36.7235585,3.40590943 C35.7184642,3.40881509 34.774917,3.8029283 34.0664642,4.51560755 C33.3582755,5.22828679 32.9694453,6.17421132 32.9725959,7.17904151 L32.9903132,13.3374566 C32.9911057,13.6584 33.2515585,13.9177962 33.5725019,13.9177962 L33.5740868,13.9177962 C33.8960868,13.9170038 34.155483,13.6554943 34.1546906,13.3340226 L34.1367283,7.17560755 C34.1346151,6.48194717 34.4032566,5.82870189 34.8922,5.33658868 C35.3814075,4.84447547 36.0333321,4.5724 36.7272566,4.57055094 L36.7343887,4.57055094 C37.4254075,4.57028679 38.0757472,4.8384 38.5662755,5.32602264 C39.0538981,5.81073962 39.3259736,6.45553208 39.3320491,7.14258868 C39.3320491,7.14866415 39.3317849,7.15473962 39.3317849,7.16081509 C39.3362755,8.59304151 38.1740113,9.76164528 36.7420491,9.76613585 C36.521483,9.76719245 36.3025019,9.7394566 36.090917,9.68556981 C35.779483,9.60632453 35.4630302,9.7949283 35.3835208,10.1063623 C35.3040113,10.4177962 35.4926151,10.7353057 35.8043132,10.8142868 C36.106766,10.8911547 36.4200491,10.9302491 36.7343887,10.9302491 L36.745483,10.9302491 C38.8124642,10.9241736 40.4911434,9.24338113 40.4961623,7.17877736 C40.4964264,7.17164528 40.4966906,7.16451321 40.4966906,7.15711698 C40.4935208,6.15228679 40.0996717,5.20847547 39.3869925,4.50028679 C38.6769547,3.79421132 37.7352566,3.40590943 36.7343887,3.40590943" id="Fill-9" fill="#2D2F33"></path>
                <path d="M31.1124113,0.299045283 C30.7909396,0.299837736 30.5312792,0.561611321 30.5323358,0.882818868 L30.5502981,7.18915849 C30.5524113,7.88308302 30.284034,8.53606415 29.7953547,9.02817736 C29.3056189,9.52055472 28.6539585,9.79236604 27.9602981,9.79447925 L27.9526377,9.79447925 C27.2621472,9.79447925 26.6118075,9.52636604 26.1210151,9.0387434 C25.6336566,8.55376226 25.3615811,7.90923396 25.3549774,7.22191321 C25.3552415,7.21610189 25.3552415,7.21002642 25.3552415,7.20395094 C25.3510151,5.77172453 26.5132792,4.60312075 27.9455057,4.59889434 C28.1708264,4.59783774 28.3847887,4.62530943 28.5961094,4.67919623 C28.9067509,4.75817736 29.2247887,4.57010189 29.3037698,4.25840377 C29.3830151,3.94696981 29.1946755,3.62998868 28.8835057,3.5507434 C28.5768264,3.47255472 28.2577321,3.43583774 27.9415434,3.43451698 C25.8745623,3.44059245 24.1961472,5.12138491 24.1911283,7.18598868 C24.1906,7.19312075 24.1906,7.20025283 24.1906,7.20764906 C24.1937698,8.21247925 24.587883,9.15629057 25.300034,9.8647434 C26.0106,10.5705547 26.9517698,10.9588566 27.9529019,10.9588566 L27.9637321,10.9588566 C28.9688264,10.9559509 29.9121094,10.5621019 30.6210906,9.84915849 C31.3290151,9.13700755 31.7178453,8.19055472 31.7149558,7.18572453 L31.6967132,0.879649057 C31.6953925,0.557913208 31.4362604,0.300630189 31.1124113,0.299045283" id="Fill-11" fill="#2D2F33"></path>
                <g transform="translate(0.000000, 0.182000)">
                    <mask id="mask-5" fill="white">
                        <use xlink:href="#path-4"></use>
                    </mask>
                    <g id="Clip-14"></g>
                    <path d="M4.85261132,4.50533208 C4.8462717,4.50295472 4.83940377,4.50084151 4.8328,4.49899245 L3.91910189,4.22004906 C3.7257434,4.1616717 3.54295094,4.1067283 3.39581887,4.03118113 L3.3638566,4.01453962 C2.89313962,3.73955849 2.61208302,3.2807283 2.61076226,2.78518113 C2.60917736,2.39978491 2.77664906,2.0342 3.08095094,1.7552566 C3.40004528,1.46310566 3.82876226,1.30144528 4.28759245,1.30012453 L4.29366792,1.30012453 C4.92789434,1.30012453 5.50189434,1.61023774 5.79193208,2.10974717 C5.94593208,2.37521887 6.28510189,2.46555849 6.55110189,2.31155849 C6.81657358,2.15782264 6.90638491,1.81786038 6.75238491,1.55265283 C6.26502642,0.711067925 5.3228,0.189369811 4.29313962,0.189369811 C4.29023396,0.189369811 4.28706415,0.189369811 4.28468679,0.189633962 C3.54849811,0.191483019 2.85510189,0.456690566 2.33102642,0.935860377 C1.79268679,1.42850189 1.49763019,2.08623774 1.50000755,2.78835094 C1.50212075,3.68831321 1.99634717,4.50876604 2.82023396,4.98318113 C2.82736604,4.98740755 2.83449811,4.99136981 2.84242264,4.99533208 L2.88812075,5.01910566 C3.12612075,5.14087925 3.36623396,5.21352075 3.59815849,5.28352075 L4.49759245,5.55797358 C5.43004528,5.88499245 6.00536604,6.58974717 6.03891321,7.44533208 C6.05978113,7.98050189 5.85981887,8.50246415 5.47521509,8.91559623 C5.02747925,9.3971434 4.36921509,9.68586038 3.66947925,9.70910566 C2.46019623,9.7487283 1.40861132,9.01253962 1.17008302,7.95857736 C1.1658566,7.9422 1.16004528,7.92133208 1.15449811,7.90495472 C1.15423396,7.90416226 1.12544151,7.81382264 1.10589434,7.67065283 C1.06495094,7.36661509 0.7868,7.15291698 0.481441509,7.19438868 C0.177667925,7.23480377 -0.0357660377,7.51480377 0.00491320755,7.81831321 C0.0318566038,8.01853962 0.0717433962,8.16382264 0.0923471698,8.22906792 C0.449479245,9.74952075 1.89913962,10.8214453 3.57676226,10.8211812 C3.61955472,10.8211812 3.66261132,10.8206528 3.70593208,10.8190679 C4.69940377,10.7865774 5.64057358,10.3684264 6.2888,9.67265283 C6.8757434,9.04106792 7.18136604,8.23487925 7.14887547,7.40201132 C7.09763019,6.08918113 6.2177434,4.97921887 4.85261132,4.50533208" id="Fill-13" fill="#2D2F33" mask="url(#mask-5)"></path>
                </g>
                <path d="M14.9811358,8.3529283 C14.7045698,8.18862642 14.3477019,8.28002264 14.1831358,8.55658868 C13.6680415,9.42379623 12.6875132,9.91855094 11.6845321,9.81553208 C10.9937774,9.74526792 10.3724943,9.40979623 9.93453208,8.87198491 C9.49577736,8.33390943 9.29370189,7.65768302 9.36370189,6.96719245 C9.43423019,6.27696604 9.76970189,5.65541887 10.3075132,5.21719245 C10.8455887,4.77896604 11.5212868,4.57636226 12.2123057,4.64689057 C12.7007208,4.69681509 13.156117,4.8798717 13.5351736,5.17360755 L11.5783434,6.78123019 C11.3303057,6.98541887 11.294117,7.35232453 11.4980415,7.60089057 C11.7022302,7.84919245 12.0694,7.88511698 12.3177019,7.68119245 L14.7750981,5.66228679 C15.0231358,5.45836226 15.0590604,5.0914566 14.8548717,4.84289057 C14.2206453,4.07104151 13.3243811,3.59002264 12.3306453,3.48832453 C11.3295132,3.38662642 10.3510981,3.67983396 9.57158868,4.31432453 C8.79260755,4.94907925 8.30736226,5.84904151 8.20566415,6.84885283 C8.10317358,7.84866415 8.39638113,8.8284 9.03166415,9.60738113 C9.66589057,10.3866264 10.566117,10.8718717 11.5656642,10.973834 C11.6932491,10.9867774 11.8192491,10.9933811 11.9457774,10.9933811 C13.2612491,10.993117 14.5038151,10.2968151 15.1847962,9.1509283 C15.3490981,8.87462642 15.257966,8.51723019 14.9811358,8.3529283" id="Fill-15" fill="#2D2F33"></path>
                <path d="M22.9877094,8.32970943 C22.7111434,8.16540755 22.3542755,8.25653962 22.1897094,8.53310566 C21.6746151,9.40057736 20.6932943,9.89453962 19.6911057,9.79231321 C18.2657472,9.64623774 17.2252566,8.36880377 17.3702755,6.94397358 C17.4408038,6.25374717 17.7762755,5.63246415 18.3143509,5.19397358 C18.8518981,4.75601132 19.5281245,4.5531434 20.2188792,4.6236717 C20.7075585,4.67359623 21.1624264,4.85665283 21.5417472,5.15038868 L19.584917,6.75801132 C19.3368792,6.9622 19.3006906,7.32884151 19.5046151,7.57740755 C19.7088038,7.82570943 20.0757094,7.86189811 20.3242755,7.65797358 L22.7816717,5.63880377 C23.0297094,5.4351434 23.065634,5.06823774 22.8614453,4.81940755 C22.227483,4.04782264 21.3312189,3.56680377 20.3369547,3.46484151 C19.3368792,3.36340755 18.3576717,3.65661509 17.5781623,4.29084151 C16.7991811,4.92586038 16.3139358,5.82582264 16.2122377,6.82589811 C16.0014453,8.88918113 17.5089547,10.7398226 19.5722377,10.9506151 C19.6995585,10.9638226 19.8258226,10.9701623 19.9518226,10.9701623 C21.2678226,10.9698981 22.5103887,10.2733321 23.1913698,9.12770943 C23.3556717,8.8511434 23.2642755,8.49401132 22.9877094,8.32970943" id="Fill-17" fill="#2D2F33"></path>
                <path d="M107.020464,2.88418491 L105.040653,2.88418491 C104.976728,2.88418491 104.922577,2.83003396 104.922577,2.76584528 L104.922313,2.28535472 C104.922313,2.04418491 104.726313,1.84871321 104.485143,1.84871321 C104.243974,1.84871321 104.048766,2.04418491 104.048766,2.28535472 L104.048766,2.76610943 C104.048766,3.31290189 104.494125,3.75773208 105.040653,3.75773208 L107.020464,3.75746792 C107.261634,3.75746792 107.457106,3.56199623 107.457106,3.32082642 C107.456842,3.0796566 107.261634,2.88418491 107.020464,2.88418491" id="Fill-19" fill="#2D2F33"></path>
                <path d="M103.219174,2.88444906 L101.781136,2.88444906 C101.211098,2.88471321 100.757551,3.30814717 100.624947,3.96297736 C100.619136,3.9896566 100.61623,4.01686415 100.61623,4.04380755 L100.575287,6.92727925 C100.572645,7.05671321 100.552834,7.18509057 100.517438,7.30263774 L99.5625321,10.3115811 C99.4896264,10.5413925 99.6169472,10.7870528 99.8467585,10.8596943 C99.8906075,10.8739585 99.9352491,10.8805623 99.978834,10.8805623 C100.164532,10.8805623 100.335966,10.7616943 100.3954,10.5757321 L101.352419,7.56018491 C101.412117,7.35995849 101.444608,7.15286415 101.44857,6.9415434 L101.488457,4.1006 C101.518834,3.97486415 101.598079,3.75799623 101.781136,3.75799623 L103.219174,3.75773208 C103.460343,3.75773208 103.655815,3.56226038 103.655815,3.32109057 C103.655815,3.07992075 103.460343,2.88444906 103.219174,2.88444906" id="Fill-21" fill="#2D2F33"></path>
                <path d="M112.192566,6.24127925 C112.044906,6.05056226 111.770717,6.01569434 111.580264,6.16309057 L111.241623,6.4246 L111.241358,4.86373208 L111.856566,4.86346792 C112.097736,4.86346792 112.292943,4.66799623 112.292943,4.42682642 C112.292943,4.1856566 112.097736,3.99018491 111.856566,3.99018491 L111.241358,3.99044906 L111.241358,3.11267547 C111.241094,2.87150566 111.045623,2.67603396 110.804453,2.67603396 C110.563283,2.67603396 110.36834,2.87150566 110.36834,3.11267547 L110.36834,3.99044906 L109.75366,3.99044906 C109.512491,3.99044906 109.316755,4.18592075 109.316755,4.42709057 C109.316755,4.66826038 109.512491,4.86373208 109.753925,4.86373208 L110.36834,4.86373208 L110.368604,7.10003396 L109.486604,7.7820717 C109.295623,7.92999623 109.260755,8.20418491 109.408415,8.39463774 C109.494264,8.50584528 109.623434,8.56422264 109.754453,8.56422264 C109.847434,8.56422264 109.941736,8.53463774 110.020717,8.47282642 L112.114113,6.85384528 C112.305094,6.70644906 112.340491,6.43226038 112.192566,6.24127925" id="Fill-23" fill="#2D2F33"></path>
                <path d="M114.513158,6.21806038 C114.361008,6.03104151 114.086026,6.00277736 113.898743,6.1549283 L111.908894,7.77417358 C111.721875,7.92606038 111.693083,8.20104151 111.845234,8.38832453 C111.93214,8.49424906 112.057611,8.5494566 112.184932,8.5494566 C112.281347,8.5494566 112.378819,8.51723019 112.460177,8.4514566 L114.450291,6.83247547 C114.637309,6.68032453 114.665309,6.40507925 114.513158,6.21806038" id="Fill-25" fill="#2D2F33"></path>
                <path d="M114.150743,8.38800755 C114.237121,8.49393208 114.363121,8.54913962 114.489649,8.54913962 C114.586592,8.54913962 114.684592,8.51691321 114.765158,8.45113962 L116.755272,6.83215849 C116.942291,6.68000755 116.970555,6.40502642 116.818668,6.2177434 C116.666253,6.03072453 116.391008,6.00246038 116.203989,6.15461132 L114.213875,7.77359245 C114.026857,7.9257434 113.998857,8.20098868 114.150743,8.38800755" id="Fill-27" fill="#2D2F33"></path>
                <path d="M113.882208,3.21696226 L116.288094,3.21696226 L115.793604,3.62956604 C115.608434,3.78409434 115.583604,4.05933962 115.737868,4.24477358 C115.824774,4.34832075 115.948396,4.40167925 116.073604,4.40167925 C116.172132,4.40167925 116.271453,4.36839623 116.353075,4.30050943 L116.920736,3.82688679 C117.208925,3.60658491 117.327,3.23386792 117.215528,2.89496226 C117.105113,2.56001887 116.803189,2.34341509 116.444736,2.34341509 L113.882208,2.34367925 C113.641038,2.34367925 113.44583,2.53915094 113.44583,2.78032075 C113.44583,3.02149057 113.641038,3.21696226 113.882208,3.21696226" id="Fill-29" fill="#2D2F33"></path>
                <path d="M115.79857,4.67557736 L113.577853,4.67399245 L113.577325,4.67399245 C113.336419,4.67399245 113.140683,4.8692 113.140419,5.11036981 C113.140419,5.35153962 113.335891,5.54701132 113.576796,5.54727547 L115.798306,5.54886038 C117.028192,5.54886038 118.02906,6.54946415 118.02906,7.77935094 C118.029325,9.00923774 117.028721,10.0101057 115.798834,10.0101057 C115.044683,10.0101057 114.347589,9.63342642 113.933136,9.00236981 C113.800796,8.80082264 113.529249,8.74482264 113.327966,8.87716226 C113.126419,9.00976604 113.070683,9.28052075 113.203287,9.48206792 C113.7794,10.3595774 114.749891,10.8833887 115.798834,10.8833887 C117.510268,10.8831245 118.902608,9.49078491 118.902608,7.77935094 C118.902343,6.06791698 117.510004,4.67557736 115.79857,4.67557736" id="Fill-31" fill="#2D2F33"></path>
                <path d="M86.2033623,6.93427925 C86.2033623,7.71141132 85.6251358,8.34405283 84.9132491,8.34405283 L84.3307962,8.34405283 L84.3302679,4.46869426 L84.9129849,4.46869426 C85.6248717,4.46843019 86.2030981,5.10080755 86.2033623,5.87793962 L86.2033623,6.93427925 Z M84.9127208,3.59514717 L84.3302679,3.59514717 L84.3302679,2.80348679 C84.3300038,2.56231698 84.1347962,2.36684528 83.8938906,2.36684528 C83.6527208,2.36684528 83.4572491,2.56231698 83.4572491,2.80348679 L83.4572491,8.34405283 L83.0121547,8.34405283 C82.3010604,8.34431698 81.7220415,7.71193962 81.7220415,6.9345434 L81.7217774,5.87846792 C81.7217774,5.24978868 82.1103434,4.69137358 82.666117,4.52046792 C82.8967208,4.44967547 83.026683,4.20533585 82.9556264,3.97473208 C82.884834,3.74439245 82.6407585,3.61495849 82.4101547,3.68575094 C81.4903811,3.9681283 80.8487585,4.86993962 80.8487585,5.87846792 L80.8487585,6.9345434 C80.8487585,8.19348679 81.8192491,9.21786415 83.012683,9.2176 L83.4572491,9.2176 L83.4575132,10.4646566 C83.4575132,10.7060906 83.6535132,10.9015623 83.894683,10.9015623 C84.1358528,10.9015623 84.3307962,10.7058264 84.3307962,10.4646566 L84.3307962,9.2176 L84.9132491,9.2176 C86.106683,9.21733585 87.0771736,8.19295849 87.0771736,6.93427925 L87.0769094,5.87793962 C87.0769094,4.61926038 86.1061547,3.59514717 84.9127208,3.59514717 L84.9127208,3.59514717 Z" id="Fill-33" fill="#2D2F33"></path>
                <path d="M77.7224,2.36724151 C77.4812302,2.36724151 77.2862868,2.56297736 77.2862868,2.80388302 C77.2862868,3.04505283 77.4814943,3.24078868 77.7226642,3.24078868 L79.663117,3.24052453 C79.9042868,3.24052453 80.0994943,3.04478868 80.0992305,2.80388302 C80.0992305,2.56271321 79.9042868,2.36724151 79.663117,2.36724151 L77.7224,2.36724151 Z" id="Fill-35" fill="#2D2F33"></path>
                <path d="M79.9511736,5.23613208 C80.1923434,5.23613208 80.3878151,5.04039623 80.3878151,4.79949057 C80.3878151,4.5580566 80.1923434,4.36258491 79.9511736,4.36258491 L79.1299283,4.36284906 L79.1299283,4.04560377 C79.1299283,3.80443396 78.9339283,3.60896226 78.6927585,3.60896226 C78.4515887,3.60896226 78.256117,3.80443396 78.256117,4.04560377 L78.256117,4.36284906 L77.4346075,4.36284906 C77.1934377,4.36284906 76.9977019,4.55858491 76.9977019,4.79975472 C76.9977019,5.04092453 77.1937019,5.23639623 77.4348717,5.23639623 L78.1800415,5.23613208 L76.9715509,8.64896226 C76.8907208,8.87639623 77.0098528,9.12601887 77.2375509,9.20658491 C77.2853623,9.22375472 77.3350226,9.23167925 77.382834,9.23167925 C77.5629849,9.23167925 77.7315132,9.12020755 77.7946453,8.94084906 L78.2563811,7.637 L78.2566453,10.4652642 C78.2566453,10.706434 78.452117,10.9019057 78.6932868,10.9019057 C78.9344566,10.9019057 79.1304566,10.706434 79.1304566,10.465 L79.1301925,7.28567925 L79.5578528,8.0844717 C79.6365698,8.23133962 79.7871358,8.31507547 79.9432491,8.31507547 C80.0124566,8.31507547 80.0832491,8.29816981 80.1487585,8.26303774 C80.3616642,8.14918868 80.4411736,7.88450943 80.3278528,7.67213208 L79.1299283,5.43609434 L79.1299283,5.23613208 L79.9511736,5.23613208 Z" id="Fill-37" fill="#2D2F33"></path>
                <path d="M90.9059623,2.80486038 C90.9059623,3.04629434 91.101434,3.24150189 91.3426038,3.24150189 L95.1838868,3.24123774 L94.4799245,3.88999245 C94.3024151,4.05350189 94.2910566,4.32980377 94.4550943,4.50704906 C94.5412075,4.60055849 94.6582264,4.64784151 94.7757736,4.64784151 C94.8819623,4.64784151 94.9878868,4.60953962 95.0718868,4.53240755 L95.9742264,3.70086038 C96.2130189,3.49086038 96.2959623,3.16384151 96.185283,2.86482264 C96.0735472,2.56289811 95.793283,2.36795472 95.471283,2.36795472 L91.3426038,2.36821887 C91.101434,2.36821887 90.9059623,2.56369057 90.9059623,2.80486038" id="Fill-39" fill="#2D2F33"></path>
                <path d="M97.5223887,5.90398491 L94.0358604,5.90424906 L94.0358604,4.75756981 C94.0358604,4.5164 93.8406528,4.3209283 93.5989547,4.3209283 C93.3577849,4.3209283 93.1623132,4.5164 93.1623132,4.75756981 L93.1625774,5.90424906 L89.5484642,5.90477736 C89.306766,5.90477736 89.1112943,6.10024906 89.1112943,6.34141887 C89.1112943,6.58258868 89.306766,6.77832453 89.5484642,6.77832453 L93.1625774,6.77779623 L93.1628415,9.14432453 C93.1628415,9.15673962 93.1625774,9.16043774 93.163634,9.17258868 C93.1670679,9.24628679 93.1583509,9.89847547 91.9567283,10.0313434 C91.7166151,10.0580226 91.5438604,10.273834 91.5705396,10.5139472 C91.595634,10.7368906 91.7842377,10.9022491 92.0037472,10.9022491 C92.0198604,10.9022491 92.0359736,10.9011925 92.0523509,10.8998717 C93.7035585,10.7165509 94.0715208,9.67368302 94.0366528,9.12873962 L94.0363887,6.77779623 L97.5223887,6.77753208 C97.7635585,6.77753208 97.9590302,6.58179623 97.9590302,6.34062642 C97.9590302,6.0994566 97.7635585,5.90398491 97.5223887,5.90398491" id="Fill-41" fill="#2D2F33"></path>
            </g>
        </g>
    </g>
</svg>