<svg xmlns="http://www.w3.org/2000/svg" width="260" height="30" viewBox="0 0 260 30">
  <defs>
    <style>
      .cls-1 {
        fill: #fff;
        fill-rule: evenodd;
      }
    </style>
  </defs>
  <path id="形状_5" data-name="形状 5" class="cls-1" d="M1269.96,86.421h-0.01l-8.03.022c-2.01.007-2.66-.25-3.55-1.385l-7.29-9L1251.02,76a8.886,8.886,0,0,0-6.45-3.154h-0.02a8.258,8.258,0,0,0-.28,16.509c0.1,0,.2.006,0.31,0.006A8.114,8.114,0,0,0,1250.31,87a11.126,11.126,0,0,0,.87-0.984,1.275,1.275,0,1,0-2-1.58,8.125,8.125,0,0,1-.65.736,5.606,5.606,0,0,1-4.17,1.618,5.7,5.7,0,0,1-3.93-9.582,5.588,5.588,0,0,1,4.12-1.809h0.02a6.434,6.434,0,0,1,4.56,2.3l7.25,8.959c1.54,1.96,3.12,2.342,5.49,2.342h0.06l8.03-.021a1.28,1.28,0,0,0,0-2.56m16.88-10.474c-0.02-.018-0.03-0.036-0.05-0.053a8.8,8.8,0,0,0-6.48-3.16,8.258,8.258,0,0,0-.28,16.509c0.11,0,.21.006,0.31,0.006a8.12,8.12,0,0,0,5.74-2.353,11.118,11.118,0,0,0,.87-0.984,1.292,1.292,0,0,0-.22-1.8,1.273,1.273,0,0,0-1.79.217,9.01,9.01,0,0,1-.64.736,5.6,5.6,0,0,1-4.17,1.618,5.707,5.707,0,0,1-3.94-9.583,5.612,5.612,0,0,1,4.13-1.809h0.01a6.342,6.342,0,0,1,4.56,2.3l8.83,10.9a1.274,1.274,0,1,0,1.97-1.616ZM1231.91,66h0a1.268,1.268,0,0,0-1.27,1.284l0.06,20.845a1.274,1.274,0,0,0,1.27,1.276h0a1.268,1.268,0,0,0,1.27-1.284l-0.06-20.845A1.274,1.274,0,0,0,1231.91,66m29.48,18a1.24,1.24,0,0,0,.79.28,1.3,1.3,0,0,0,1-.481l5.49-6.912,0.03-.035a2.549,2.549,0,0,0,.23-2.681,2.515,2.515,0,0,0-2.27-1.408h-0.01l-8.99,0a1.28,1.28,0,0,0,0,2.559l9,0-5.47,6.879a1.283,1.283,0,0,0,.2,1.8m-42.07-11.1h-0.03a8.244,8.244,0,0,0-8.2,8.293l0.04,13.537a1.273,1.273,0,0,0,1.27,1.276h0.01a1.28,1.28,0,0,0,1.27-1.283l-0.04-13.536a5.691,5.691,0,0,1,5.66-5.726h0.02a5.611,5.611,0,0,1,4,1.66,5.7,5.7,0,0,1,1.68,3.993v0.04a5.7,5.7,0,0,1-5.67,5.726,5.606,5.606,0,0,1-1.42-.177,1.28,1.28,0,0,0-.63,2.481,8.251,8.251,0,0,0,2.04.255h0.02a8.254,8.254,0,0,0,8.2-8.246V81.148a8.237,8.237,0,0,0-8.22-8.245m-12.3-6.829a1.28,1.28,0,0,0-1.27,1.283l0.04,13.862a5.692,5.692,0,0,1-5.66,5.727h-0.02a5.614,5.614,0,0,1-4-1.661,5.7,5.7,0,0,1-1.68-3.993v-0.04a5.708,5.708,0,0,1,5.67-5.726,5.546,5.546,0,0,1,1.42.177,1.28,1.28,0,0,0,.63-2.48,8.472,8.472,0,0,0-2.06-.255,8.254,8.254,0,0,0-8.2,8.246v0.048a8.237,8.237,0,0,0,8.22,8.245h0.03a8.244,8.244,0,0,0,8.2-8.293L1208.3,67.35a1.277,1.277,0,0,0-1.28-1.276M1149.6,75.72a0.268,0.268,0,0,1-.04-0.014l-2-.613a7.174,7.174,0,0,1-1.15-.415l-0.07-.037a3.152,3.152,0,0,1-1.64-2.7,3.038,3.038,0,0,1,1.02-2.264,3.9,3.9,0,0,1,2.64-1h0.02a3.738,3.738,0,0,1,3.27,1.78,1.215,1.215,0,1,0,2.1-1.225,6.152,6.152,0,0,0-5.37-3h-0.02a6.334,6.334,0,0,0-4.28,1.64,5.468,5.468,0,0,0-1.81,4.072,5.575,5.575,0,0,0,2.88,4.824,0.253,0.253,0,0,1,.05.027l0.1,0.052a8.979,8.979,0,0,0,1.56.581l1.96,0.6a4.627,4.627,0,0,1,3.37,4.149,4.472,4.472,0,0,1-1.23,3.232,5.649,5.649,0,0,1-3.95,1.744,5.26,5.26,0,0,1-5.46-3.848c-0.01-.036-0.03-0.082-0.04-0.118a3.6,3.6,0,0,1-.1-0.515A1.216,1.216,0,1,0,1139,83a5.218,5.218,0,0,0,.19.9,7.67,7.67,0,0,0,7.62,5.7c0.09,0,.19,0,0.28,0a8.1,8.1,0,0,0,5.65-2.52,6.944,6.944,0,0,0,1.88-4.99,7.085,7.085,0,0,0-5.02-6.367m22.15,8.057a1.274,1.274,0,0,0-1.75.447,5.689,5.689,0,1,1-8.47-7.34,5.667,5.667,0,0,1,7.06-.1l-4.28,3.534a1.285,1.285,0,0,0-.18,1.8,1.268,1.268,0,0,0,1.79.177l5.38-4.438a1.283,1.283,0,0,0,.17-1.8,8.242,8.242,0,1,0-7.19,13.476,8.1,8.1,0,0,0,.83.043,8.25,8.25,0,0,0,7.08-4.05,1.286,1.286,0,0,0-.44-1.754m17.51-.051a1.274,1.274,0,0,0-1.75.447,5.689,5.689,0,1,1-8.47-7.34,5.65,5.65,0,0,1,7.05-.1l-4.27,3.534a1.275,1.275,0,1,0,1.61,1.978l5.38-4.438a1.283,1.283,0,0,0,.17-1.8,8.222,8.222,0,0,0-14.54,4.41,8.272,8.272,0,0,0,7.35,9.066,7.956,7.956,0,0,0,.83.043,8.25,8.25,0,0,0,7.08-4.05,1.286,1.286,0,0,0-.44-1.754m183.76-11.969h-4.33a0.264,0.264,0,0,1-.26-0.26V70.44a0.955,0.955,0,1,0-1.91,0V71.5a2.175,2.175,0,0,0,2.17,2.18h4.33a0.96,0.96,0,0,0,0-1.919m-8.32,0h-3.14a2.662,2.662,0,0,0-2.53,2.371,1.067,1.067,0,0,0-.02.178l-0.09,6.338a3.185,3.185,0,0,1-.12.825l-2.09,6.614a0.961,0.961,0,0,0,.62,1.2,0.935,0.935,0,0,0,.29.046,0.962,0.962,0,0,0,.91-0.67l2.09-6.628a5.182,5.182,0,0,0,.21-1.36l0.09-6.245a0.837,0.837,0,0,1,.64-0.753h3.14a0.96,0.96,0,1,0,0-1.919m19.63,7.378a0.954,0.954,0,0,0-1.34-.172l-0.74.575V76.107h1.34a0.96,0.96,0,1,0,0-1.919h-1.34V72.258a0.955,0.955,0,1,0-1.91,0v1.929h-1.35a0.96,0.96,0,0,0,0,1.919h1.35v4.915l-1.93,1.5a0.963,0.963,0,0,0-.17,1.347,0.951,0.951,0,0,0,.75.373,0.966,0.966,0,0,0,.59-0.2l4.58-3.559a0.972,0.972,0,0,0,.17-1.346m5.07-.051a0.947,0.947,0,0,0-1.34-.139l-4.35,3.559a0.956,0.956,0,1,0,1.2,1.489l4.35-3.559a0.965,0.965,0,0,0,.14-1.35m-0.79,4.77a0.948,0.948,0,0,0,.74.354,0.934,0.934,0,0,0,.6-0.215l4.35-3.559a0.956,0.956,0,1,0-1.2-1.489l-4.35,3.559a0.965,0.965,0,0,0-.14,1.35m-0.59-11.366h5.26l-1.08.907a0.966,0.966,0,0,0-.12,1.352,0.95,0.95,0,0,0,.73.345,0.923,0.923,0,0,0,.61-0.222l1.25-1.041a1.861,1.861,0,0,0,.64-2.048,1.738,1.738,0,0,0-1.68-1.212h-5.61a0.96,0.96,0,0,0,0,1.919m4.19,3.206-4.85,0h-0.01a0.96,0.96,0,0,0,0,1.92l4.86,0a4.9,4.9,0,1,1-4.08,7.591,0.95,0.95,0,0,0-1.32-.275,0.963,0.963,0,0,0-.27,1.33,6.8,6.8,0,1,0,5.67-10.565m-67.54-2.375h-1.27v-1.74a0.955,0.955,0,1,0-1.91,0V83.757h-0.97a2.976,2.976,0,0,1-2.83-3.1V78.338a3.085,3.085,0,0,1,2.07-2.985,0.959,0.959,0,0,0-.56-1.835,5,5,0,0,0-3.41,4.82v2.321a4.884,4.884,0,0,0,4.73,5.018h0.97v2.741a0.955,0.955,0,1,0,1.91,0V85.677h1.27a4.886,4.886,0,0,0,4.73-5.019V78.337a4.885,4.885,0,0,0-4.73-5.018m2.82,7.34a2.97,2.97,0,0,1-2.82,3.1h-1.27V75.239h1.27a2.968,2.968,0,0,1,2.82,3.1v2.322ZM1308.95,70.62a0.96,0.96,0,0,0,0,1.92h4.24a0.96,0.96,0,1,0,0-1.919h-4.24Zm4.87,6.306a0.96,0.96,0,0,0,0-1.92h-1.79v-0.7a0.955,0.955,0,1,0-1.91,0v0.7h-1.8a0.96,0.96,0,0,0,0,1.92h1.63l-2.64,7.5a0.955,0.955,0,0,0,.58,1.226,0.912,0.912,0,0,0,.32.055,0.959,0.959,0,0,0,.9-0.639l1.01-2.866V88.42a0.955,0.955,0,1,0,1.91,0V81.431l0.93,1.756a0.949,0.949,0,0,0,.84.507,0.916,0.916,0,0,0,.45-0.114,0.969,0.969,0,0,0,.4-1.3l-2.62-4.915v-0.44h1.79Zm23.96-5.344a0.958,0.958,0,0,0,.95.96h8.4l-1.54,1.426a0.968,0.968,0,0,0-.05,1.356,0.943,0.943,0,0,0,.7.309,0.972,0.972,0,0,0,.65-0.254l1.97-1.828a1.671,1.671,0,0,0,.46-1.838,1.639,1.639,0,0,0-1.56-1.092h-9.03a0.958,0.958,0,0,0-.95.96m14.47,6.812h-7.63v-2.52a0.955,0.955,0,1,0-1.91,0v2.52h-7.9a0.96,0.96,0,1,0,0,1.92h7.9v5.263c0.01,0.163-.01,1.6-2.63,1.888a0.959,0.959,0,1,0,.2,1.909c3.62-.4,4.42-2.695,4.34-3.893V80.314h7.63a0.96,0.96,0,0,0,0-1.92" transform="translate(-1139 -66)"/>
</svg>
